STARTFONT 2.1
FONT -FontForge-Libre Bodoni v2002-Regular-R-Normal--17-120-100-100-P-94-ISO10646-1
SIZE 12 100 100
FONTBOUNDINGBOX 41 26 -17 -6
COMMENT "Generated by fontforge, http://fontforge.sourceforge.net"
COMMENT "Copyright \(c\) 2014, Impallari Type \(www.impallari.com\)"
STARTPROPERTIES 39
FOUNDRY "FontForge"
FAMILY_NAME "Libre Bodoni v2002"
WEIGHT_NAME "Regular"
SLANT "R"
SETWIDTH_NAME "Normal"
ADD_STYLE_NAME ""
PIXEL_SIZE 17
POINT_SIZE 120
RESOLUTION_X 100
RESOLUTION_Y 100
SPACING "P"
AVERAGE_WIDTH 94
CHARSET_REGISTRY "ISO10646"
CHARSET_ENCODING "1"
FONTNAME_REGISTRY ""
CHARSET_COLLECTIONS "ISO8859-2 ISO8859-9 ISO8859-4 ISO10646-1"
FONT_NAME "LibreBodoniv2002-Regular"
FACE_NAME "Libre Bodoni v2002 Regular"
COPYRIGHT "Copyright \(c\) 2014, Impallari Type \(www.impallari.com\)"
FONT_VERSION "002.002"
FONT_ASCENT 14
FONT_DESCENT 3
UNDERLINE_POSITION -2
UNDERLINE_THICKNESS 1
X_HEIGHT 7
CAP_HEIGHT 12
RAW_ASCENT 800
RAW_DESCENT 200
NORM_SPACE 4
RELATIVE_WEIGHT 40
RELATIVE_SETWIDTH 50
SUPERSCRIPT_X 0
SUPERSCRIPT_Y 5
SUPERSCRIPT_SIZE 10
SUBSCRIPT_X 0
SUBSCRIPT_Y 1
SUBSCRIPT_SIZE 10
AVG_LOWERCASE_WIDTH 89
AVG_UPPERCASE_WIDTH 121
ENDPROPERTIES
CHARS 633
STARTCHAR CR
ENCODING 13
SWIDTH 206 0
DWIDTH 4 0
BBX 1 1 0 0
BITMAP
00
ENDCHAR
STARTCHAR space
ENCODING 32
SWIDTH 206 0
DWIDTH 4 0
BBX 1 1 0 0
BITMAP
00
ENDCHAR
STARTCHAR exclam
ENCODING 33
SWIDTH 254 0
DWIDTH 4 0
BBX 2 13 1 0
BITMAP
C0
C0
C0
C0
C0
40
40
80
80
00
00
C0
C0
ENDCHAR
STARTCHAR quotedbl
ENCODING 34
SWIDTH 395 0
DWIDTH 7 0
BBX 5 4 1 9
BITMAP
D8
D8
90
90
ENDCHAR
STARTCHAR numbersign
ENCODING 35
SWIDTH 546 0
DWIDTH 9 0
BBX 9 13 0 0
BITMAP
1100
1100
1200
1200
7F80
2200
2200
2200
FF00
2400
2400
4400
4400
ENDCHAR
STARTCHAR dollar
ENCODING 36
SWIDTH 556 0
DWIDTH 9 0
BBX 8 16 0 -2
BITMAP
14
14
3F
55
57
74
7C
3E
17
15
55
F5
55
3E
14
14
ENDCHAR
STARTCHAR percent
ENCODING 37
SWIDTH 913 0
DWIDTH 16 0
BBX 14 13 1 0
BITMAP
7020
C840
CC80
CC80
CD00
C900
5270
2288
048C
088C
088C
1088
1070
ENDCHAR
STARTCHAR ampersand
ENCODING 38
SWIDTH 800 0
DWIDTH 14 0
BBX 12 13 0 0
BITMAP
0F80
1880
1880
1D80
0E00
1E30
2720
6320
E3A0
E1C0
E0C0
71E0
3E70
ENDCHAR
STARTCHAR quotesingle
ENCODING 39
SWIDTH 224 0
DWIDTH 4 0
BBX 2 4 1 9
BITMAP
C0
C0
80
80
ENDCHAR
STARTCHAR parenleft
ENCODING 40
SWIDTH 309 0
DWIDTH 5 0
BBX 4 16 1 -2
BITMAP
10
20
20
60
40
40
C0
C0
C0
C0
C0
40
60
20
20
10
ENDCHAR
STARTCHAR parenright
ENCODING 41
SWIDTH 309 0
DWIDTH 5 0
BBX 4 16 0 -2
BITMAP
80
40
40
20
20
30
30
30
30
30
30
20
20
40
40
80
ENDCHAR
STARTCHAR asterisk
ENCODING 42
SWIDTH 443 0
DWIDTH 8 0
BBX 6 7 1 6
BITMAP
30
A4
EC
30
FC
A4
30
ENDCHAR
STARTCHAR plus
ENCODING 43
SWIDTH 578 0
DWIDTH 10 0
BBX 8 8 1 2
BITMAP
10
10
10
10
FF
10
10
10
ENDCHAR
STARTCHAR comma
ENCODING 44
SWIDTH 232 0
DWIDTH 4 0
BBX 2 5 1 -3
BITMAP
C0
C0
40
40
80
ENDCHAR
STARTCHAR hyphen
ENCODING 45
SWIDTH 395 0
DWIDTH 7 0
BBX 5 1 1 3
BITMAP
F8
ENDCHAR
STARTCHAR period
ENCODING 46
SWIDTH 226 0
DWIDTH 4 0
BBX 2 2 1 0
BITMAP
C0
C0
ENDCHAR
STARTCHAR slash
ENCODING 47
SWIDTH 190 0
DWIDTH 3 0
BBX 4 13 0 0
BITMAP
10
10
10
20
20
20
40
40
40
40
80
80
80
ENDCHAR
STARTCHAR zero
ENCODING 48
SWIDTH 663 0
DWIDTH 11 0
BBX 9 12 1 0
BITMAP
3E00
6100
C180
C180
C180
C180
C180
C180
C180
6180
6300
1E00
ENDCHAR
STARTCHAR one
ENCODING 49
SWIDTH 431 0
DWIDTH 7 0
BBX 5 12 1 0
BITMAP
F0
30
30
30
30
30
30
30
30
30
30
F8
ENDCHAR
STARTCHAR two
ENCODING 50
SWIDTH 570 0
DWIDTH 10 0
BBX 8 13 1 0
BITMAP
38
C6
87
C7
C7
06
04
08
10
20
41
FF
FF
ENDCHAR
STARTCHAR three
ENCODING 51
SWIDTH 552 0
DWIDTH 9 0
BBX 9 12 0 0
BITMAP
3E00
6300
2300
0300
0400
3E00
0300
0380
0380
E300
4300
3E00
ENDCHAR
STARTCHAR four
ENCODING 52
SWIDTH 595 0
DWIDTH 10 0
BBX 10 13 0 0
BITMAP
0200
0600
0600
0E00
1600
2600
2600
4600
8640
7FC0
0640
0600
0700
ENDCHAR
STARTCHAR five
ENCODING 53
SWIDTH 551 0
DWIDTH 9 0
BBX 8 13 1 0
BITMAP
7E
7E
80
80
80
B0
4E
06
07
07
C6
86
78
ENDCHAR
STARTCHAR six
ENCODING 54
SWIDTH 606 0
DWIDTH 10 0
BBX 9 13 1 0
BITMAP
0700
1800
3000
6000
6000
FE00
C300
C380
C380
C380
C300
4300
3C00
ENDCHAR
STARTCHAR seven
ENCODING 55
SWIDTH 504 0
DWIDTH 9 0
BBX 7 12 1 0
BITMAP
FE
FE
84
04
08
08
08
10
10
30
38
38
ENDCHAR
STARTCHAR eight
ENCODING 56
SWIDTH 613 0
DWIDTH 10 0
BBX 9 12 1 0
BITMAP
7E00
C300
C300
6300
6600
3C00
4300
C300
C380
C380
C300
3E00
ENDCHAR
STARTCHAR nine
ENCODING 57
SWIDTH 606 0
DWIDTH 10 0
BBX 9 13 1 -1
BITMAP
7E00
C300
C300
C380
C380
C380
4380
3F00
0300
0600
0C00
1000
6000
ENDCHAR
STARTCHAR colon
ENCODING 58
SWIDTH 226 0
DWIDTH 4 0
BBX 2 7 1 0
BITMAP
C0
C0
00
00
00
C0
C0
ENDCHAR
STARTCHAR semicolon
ENCODING 59
SWIDTH 280 0
DWIDTH 5 0
BBX 2 10 1 -3
BITMAP
C0
C0
00
00
00
C0
C0
40
40
80
ENDCHAR
STARTCHAR less
ENCODING 60
SWIDTH 588 0
DWIDTH 10 0
BBX 8 9 1 1
BITMAP
01
06
18
60
80
60
18
06
01
ENDCHAR
STARTCHAR equal
ENCODING 61
SWIDTH 598 0
DWIDTH 10 0
BBX 8 4 1 4
BITMAP
FF
00
00
FF
ENDCHAR
STARTCHAR greater
ENCODING 62
SWIDTH 588 0
DWIDTH 10 0
BBX 8 9 1 1
BITMAP
80
60
18
06
01
06
18
60
80
ENDCHAR
STARTCHAR question
ENCODING 63
SWIDTH 414 0
DWIDTH 7 0
BBX 6 13 0 0
BITMAP
78
84
C4
44
0C
1C
18
30
20
00
00
30
30
ENDCHAR
STARTCHAR at
ENCODING 64
SWIDTH 835 0
DWIDTH 14 0
BBX 12 14 1 -3
BITMAP
0FC0
1020
6010
47D0
8CD0
98D0
9990
9990
99A0
8FC0
8000
4040
2080
1F00
ENDCHAR
STARTCHAR A
ENCODING 65
SWIDTH 686 0
DWIDTH 12 0
BBX 10 13 1 0
BITMAP
0800
0C00
0C00
1C00
1E00
2600
2600
2700
4300
7F00
4380
8180
C3C0
ENDCHAR
STARTCHAR B
ENCODING 66
SWIDTH 703 0
DWIDTH 12 0
BBX 10 13 1 0
BITMAP
FF00
6180
6180
6180
6180
6300
7E00
6180
61C0
61C0
61C0
6180
FF00
ENDCHAR
STARTCHAR C
ENCODING 67
SWIDTH 687 0
DWIDTH 12 0
BBX 10 13 1 0
BITMAP
1F40
30C0
6040
E040
E000
E000
E000
E000
E000
E040
6040
20C0
1F40
ENDCHAR
STARTCHAR D
ENCODING 68
SWIDTH 777 0
DWIDTH 13 0
BBX 11 13 1 0
BITMAP
FF00
6080
60C0
6060
6060
6060
6060
6060
6060
6060
60C0
6080
FF00
ENDCHAR
STARTCHAR E
ENCODING 69
SWIDTH 691 0
DWIDTH 12 0
BBX 10 13 1 0
BITMAP
FF80
6080
6080
6000
6200
6200
6E00
7600
6200
6040
6040
6040
FFC0
ENDCHAR
STARTCHAR F
ENCODING 70
SWIDTH 658 0
DWIDTH 11 0
BBX 10 13 1 0
BITMAP
FFC0
60C0
6040
6040
6200
6200
6600
7E00
6200
6000
6000
6000
F000
ENDCHAR
STARTCHAR G
ENCODING 71
SWIDTH 737 0
DWIDTH 13 0
BBX 10 13 1 0
BITMAP
1F40
30C0
6040
E040
E000
E000
C000
C000
E1C0
E0C0
60C0
2080
1F00
ENDCHAR
STARTCHAR H
ENCODING 72
SWIDTH 801 0
DWIDTH 14 0
BBX 11 13 1 0
BITMAP
F1E0
60E0
60E0
60E0
60E0
60E0
7FE0
60E0
60E0
60E0
60E0
60E0
F1E0
ENDCHAR
STARTCHAR I
ENCODING 73
SWIDTH 379 0
DWIDTH 6 0
BBX 4 13 1 0
BITMAP
F0
60
60
60
60
60
60
60
60
60
60
60
F0
ENDCHAR
STARTCHAR J
ENCODING 74
SWIDTH 460 0
DWIDTH 8 0
BBX 6 15 0 -2
BITMAP
3C
18
18
18
18
18
18
18
18
18
18
18
D8
D0
E0
ENDCHAR
STARTCHAR K
ENCODING 75
SWIDTH 729 0
DWIDTH 12 0
BBX 11 13 1 0
BITMAP
F1C0
6100
6200
6200
6400
6C00
7C00
6E00
6700
6380
61C0
61C0
F1E0
ENDCHAR
STARTCHAR L
ENCODING 76
SWIDTH 662 0
DWIDTH 11 0
BBX 10 13 1 0
BITMAP
F800
7000
7000
7000
7000
7000
7000
7000
7000
7040
7040
70C0
FFC0
ENDCHAR
STARTCHAR M
ENCODING 77
SWIDTH 884 0
DWIDTH 15 0
BBX 13 13 1 0
BITMAP
F078
7070
78B0
78B0
58B0
5930
5D30
4D30
4E30
4E30
4630
4630
E478
ENDCHAR
STARTCHAR N
ENCODING 78
SWIDTH 744 0
DWIDTH 13 0
BBX 10 13 1 0
BITMAP
F0C0
7840
5840
5C40
4E40
4E40
4740
43C0
43C0
41C0
40C0
40C0
E040
ENDCHAR
STARTCHAR O
ENCODING 79
SWIDTH 782 0
DWIDTH 13 0
BBX 12 13 1 0
BITMAP
1F00
2080
60C0
E060
E060
C060
C070
C060
E060
E060
60C0
2080
1F00
ENDCHAR
STARTCHAR P
ENCODING 80
SWIDTH 684 0
DWIDTH 12 0
BBX 10 13 1 0
BITMAP
FF00
6180
61C0
61C0
61C0
6180
7E00
6000
6000
6000
6000
6000
F800
ENDCHAR
STARTCHAR Q
ENCODING 81
SWIDTH 782 0
DWIDTH 13 0
BBX 12 18 1 -5
BITMAP
1F00
2080
60C0
E060
E060
E060
C070
C060
E060
E060
60C0
20C0
1100
0E00
0E00
0600
0300
00E0
ENDCHAR
STARTCHAR R
ENCODING 82
SWIDTH 691 0
DWIDTH 12 0
BBX 10 13 1 0
BITMAP
FF00
6180
61C0
61C0
6180
6300
7E00
6300
6180
6180
6180
6180
F8C0
ENDCHAR
STARTCHAR S
ENCODING 83
SWIDTH 574 0
DWIDTH 10 0
BBX 8 13 1 0
BITMAP
3E
42
82
80
E0
FC
7E
1F
03
01
81
82
FC
ENDCHAR
STARTCHAR T
ENCODING 84
SWIDTH 705 0
DWIDTH 12 0
BBX 12 13 0 0
BITMAP
FFF0
C630
8610
8610
0600
0600
0600
0600
0600
0600
0600
0600
0F00
ENDCHAR
STARTCHAR U
ENCODING 85
SWIDTH 737 0
DWIDTH 13 0
BBX 10 13 1 0
BITMAP
F0C0
6040
6040
6040
6040
6040
6040
6040
6040
6040
6040
3080
1F00
ENDCHAR
STARTCHAR V
ENCODING 86
SWIDTH 714 0
DWIDTH 12 0
BBX 10 13 1 0
BITMAP
F0C0
6080
7080
3080
3100
3900
1900
1A00
1E00
0E00
0C00
0C00
0800
ENDCHAR
STARTCHAR W
ENCODING 87
SWIDTH 907 0
DWIDTH 15 0
BBX 14 13 1 0
BITMAP
FF8C
C688
6688
6708
7310
3310
33A0
3BA0
1DA0
1CC0
1CC0
08C0
0880
ENDCHAR
STARTCHAR X
ENCODING 88
SWIDTH 674 0
DWIDTH 11 0
BBX 10 13 1 0
BITMAP
F180
6100
7100
3A00
1C00
1C00
0C00
1E00
2600
2700
4300
4380
C3C0
ENDCHAR
STARTCHAR Y
ENCODING 89
SWIDTH 657 0
DWIDTH 11 0
BBX 11 13 0 0
BITMAP
F0E0
7040
3880
1880
1D00
0D00
0E00
0600
0600
0600
0600
0600
0F00
ENDCHAR
STARTCHAR Z
ENCODING 90
SWIDTH 651 0
DWIDTH 11 0
BBX 10 13 0 0
BITMAP
7FC0
41C0
4380
4380
0700
0600
0E00
1C00
1C00
3840
3040
7040
FFC0
ENDCHAR
STARTCHAR bracketleft
ENCODING 91
SWIDTH 318 0
DWIDTH 5 0
BBX 3 15 1 -2
BITMAP
E0
C0
C0
C0
C0
C0
C0
C0
C0
C0
C0
C0
C0
C0
E0
ENDCHAR
STARTCHAR backslash
ENCODING 92
SWIDTH 149 0
DWIDTH 3 0
BBX 4 13 -1 0
BITMAP
80
80
40
40
40
40
20
20
20
10
10
10
10
ENDCHAR
STARTCHAR bracketright
ENCODING 93
SWIDTH 318 0
DWIDTH 5 0
BBX 3 15 1 -2
BITMAP
E0
60
60
60
60
60
60
60
60
60
60
60
60
60
E0
ENDCHAR
STARTCHAR asciicircum
ENCODING 94
SWIDTH 501 0
DWIDTH 9 0
BBX 8 8 0 3
BITMAP
08
18
14
24
22
42
41
81
ENDCHAR
STARTCHAR underscore
ENCODING 95
SWIDTH 538 0
DWIDTH 9 0
BBX 9 1 0 -2
BITMAP
FF80
ENDCHAR
STARTCHAR grave
ENCODING 96
SWIDTH 248 0
DWIDTH 4 0
BBX 4 3 0 10
BITMAP
C0
60
30
ENDCHAR
STARTCHAR a
ENCODING 97
SWIDTH 506 0
DWIDTH 9 0
BBX 7 8 1 0
BITMAP
78
CC
4C
0C
7C
CC
CC
F6
ENDCHAR
STARTCHAR b
ENCODING 98
SWIDTH 570 0
DWIDTH 10 0
BBX 8 13 1 0
BITMAP
C0
C0
C0
C0
C0
DC
E6
C3
C3
C3
C3
E2
DC
ENDCHAR
STARTCHAR c
ENCODING 99
SWIDTH 505 0
DWIDTH 9 0
BBX 7 8 1 0
BITMAP
3C
46
C4
C0
C0
C2
44
38
ENDCHAR
STARTCHAR d
ENCODING 100
SWIDTH 568 0
DWIDTH 10 0
BBX 7 13 1 0
BITMAP
06
06
06
06
06
3E
46
C6
C6
C6
C6
46
7E
ENDCHAR
STARTCHAR e
ENCODING 101
SWIDTH 505 0
DWIDTH 9 0
BBX 7 8 1 0
BITMAP
38
44
C6
F8
C0
C2
44
38
ENDCHAR
STARTCHAR f
ENCODING 102
SWIDTH 362 0
DWIDTH 6 0
BBX 6 13 1 0
BITMAP
38
6C
60
60
60
F0
60
60
60
60
60
60
F0
ENDCHAR
STARTCHAR g
ENCODING 103
SWIDTH 518 0
DWIDTH 9 0
BBX 7 14 1 -6
BITMAP
3A
4C
CC
CC
48
F0
80
FC
FE
82
82
82
84
78
ENDCHAR
STARTCHAR h
ENCODING 104
SWIDTH 596 0
DWIDTH 10 0
BBX 8 13 1 0
BITMAP
E0
60
60
60
60
6E
73
63
63
63
63
63
E7
ENDCHAR
STARTCHAR i
ENCODING 105
SWIDTH 330 0
DWIDTH 6 0
BBX 3 12 1 0
BITMAP
60
60
00
00
00
E0
60
60
60
60
60
60
ENDCHAR
STARTCHAR j
ENCODING 106
SWIDTH 330 0
DWIDTH 6 0
BBX 5 19 -1 -6
BITMAP
18
18
00
00
00
38
18
18
18
18
18
18
18
18
18
18
10
D0
60
ENDCHAR
STARTCHAR k
ENCODING 107
SWIDTH 522 0
DWIDTH 9 0
BBX 8 13 1 0
BITMAP
C0
40
40
40
40
46
48
50
58
5C
4C
46
C7
ENDCHAR
STARTCHAR l
ENCODING 108
SWIDTH 296 0
DWIDTH 5 0
BBX 3 13 1 0
BITMAP
C0
40
40
40
40
40
40
40
40
40
40
40
E0
ENDCHAR
STARTCHAR m
ENCODING 109
SWIDTH 876 0
DWIDTH 15 0
BBX 13 8 1 0
BITMAP
EEF0
7330
6330
6330
6330
6330
6330
E738
ENDCHAR
STARTCHAR n
ENCODING 110
SWIDTH 596 0
DWIDTH 10 0
BBX 8 8 1 0
BITMAP
EE
73
63
63
63
63
63
E7
ENDCHAR
STARTCHAR o
ENCODING 111
SWIDTH 562 0
DWIDTH 10 0
BBX 8 8 1 0
BITMAP
3C
46
C6
C3
C3
C6
46
3C
ENDCHAR
STARTCHAR p
ENCODING 112
SWIDTH 578 0
DWIDTH 10 0
BBX 8 14 1 -6
BITMAP
DE
E2
C3
C3
C3
C3
E2
DC
C0
C0
C0
C0
C0
E0
ENDCHAR
STARTCHAR q
ENCODING 113
SWIDTH 578 0
DWIDTH 10 0
BBX 8 14 1 -6
BITMAP
3F
46
C6
C6
C6
C6
46
3E
06
06
06
06
06
07
ENDCHAR
STARTCHAR r
ENCODING 114
SWIDTH 432 0
DWIDTH 7 0
BBX 6 8 1 0
BITMAP
FC
6C
60
60
60
60
60
E0
ENDCHAR
STARTCHAR s
ENCODING 115
SWIDTH 438 0
DWIDTH 7 0
BBX 6 8 1 0
BITMAP
78
88
C0
F0
78
0C
88
F8
ENDCHAR
STARTCHAR t
ENCODING 116
SWIDTH 354 0
DWIDTH 6 0
BBX 5 10 1 0
BITMAP
40
40
C0
60
40
40
40
40
48
70
ENDCHAR
STARTCHAR u
ENCODING 117
SWIDTH 570 0
DWIDTH 10 0
BBX 7 8 1 0
BITMAP
C6
C6
C6
C6
C6
C6
C6
7E
ENDCHAR
STARTCHAR v
ENCODING 118
SWIDTH 498 0
DWIDTH 8 0
BBX 7 8 1 0
BITMAP
C6
C4
64
68
38
30
30
10
ENDCHAR
STARTCHAR w
ENCODING 119
SWIDTH 686 0
DWIDTH 12 0
BBX 10 8 1 0
BITMAP
C440
C440
6E80
6E80
7380
3300
3300
2200
ENDCHAR
STARTCHAR x
ENCODING 120
SWIDTH 506 0
DWIDTH 9 0
BBX 7 8 1 0
BITMAP
C4
E8
68
30
38
5C
4C
86
ENDCHAR
STARTCHAR y
ENCODING 121
SWIDTH 486 0
DWIDTH 8 0
BBX 7 14 0 -6
BITMAP
62
62
34
34
1C
18
18
08
10
10
10
20
E0
C0
ENDCHAR
STARTCHAR z
ENCODING 122
SWIDTH 480 0
DWIDTH 8 0
BBX 6 8 1 0
BITMAP
FC
9C
98
30
30
60
E4
FC
ENDCHAR
STARTCHAR braceleft
ENCODING 123
SWIDTH 312 0
DWIDTH 5 0
BBX 4 15 1 -2
BITMAP
70
60
60
60
60
60
60
C0
60
60
60
60
60
60
30
ENDCHAR
STARTCHAR bar
ENCODING 124
SWIDTH 367 0
DWIDTH 6 0
BBX 1 15 3 -2
BITMAP
80
80
80
80
80
80
80
80
80
80
80
80
80
80
80
ENDCHAR
STARTCHAR braceright
ENCODING 125
SWIDTH 312 0
DWIDTH 5 0
BBX 3 15 1 -2
BITMAP
C0
C0
C0
C0
C0
C0
40
60
C0
C0
C0
C0
C0
C0
C0
ENDCHAR
STARTCHAR asciitilde
ENCODING 126
SWIDTH 475 0
DWIDTH 8 0
BBX 8 3 0 3
BITMAP
61
5B
86
ENDCHAR
STARTCHAR uni00A0
ENCODING 160
SWIDTH 206 0
DWIDTH 4 0
BBX 1 1 0 0
BITMAP
00
ENDCHAR
STARTCHAR exclamdown
ENCODING 161
SWIDTH 254 0
DWIDTH 4 0
BBX 2 14 1 -6
BITMAP
C0
C0
00
00
00
80
80
40
40
C0
C0
C0
C0
C0
ENDCHAR
STARTCHAR cent
ENCODING 162
SWIDTH 478 0
DWIDTH 8 0
BBX 7 13 0 0
BITMAP
08
08
08
3E
6E
6A
E8
68
6A
2A
1C
08
08
ENDCHAR
STARTCHAR sterling
ENCODING 163
SWIDTH 559 0
DWIDTH 10 0
BBX 9 13 0 -1
BITMAP
1F00
1080
3180
3000
3000
7E00
1800
1800
1800
7080
9880
9F00
6600
ENDCHAR
STARTCHAR currency
ENCODING 164
SWIDTH 669 0
DWIDTH 11 0
BBX 8 8 2 2
BITMAP
BE
C6
82
81
81
82
46
BE
ENDCHAR
STARTCHAR yen
ENCODING 165
SWIDTH 760 0
DWIDTH 13 0
BBX 11 13 1 0
BITMAP
F0E0
7040
3080
3900
1D00
0E00
7FC0
0E00
0E00
7FC0
0E00
0E00
1F00
ENDCHAR
STARTCHAR brokenbar
ENCODING 166
SWIDTH 367 0
DWIDTH 6 0
BBX 1 15 3 -2
BITMAP
80
80
80
80
80
80
00
00
00
80
80
80
80
80
80
ENDCHAR
STARTCHAR section
ENCODING 167
SWIDTH 499 0
DWIDTH 8 0
BBX 7 15 1 -2
BITMAP
38
CC
4C
40
70
B8
9C
CE
E6
7A
3C
0C
C4
C4
78
ENDCHAR
STARTCHAR dieresis
ENCODING 168
SWIDTH 320 0
DWIDTH 5 0
BBX 5 2 0 10
BITMAP
C8
C8
ENDCHAR
STARTCHAR copyright
ENCODING 169
SWIDTH 833 0
DWIDTH 14 0
BBX 12 13 1 0
BITMAP
0F00
30C0
4020
8F90
9090
B010
B010
B010
9090
8890
4720
2040
1F80
ENDCHAR
STARTCHAR ordfeminine
ENCODING 170
SWIDTH 336 0
DWIDTH 6 0
BBX 5 5 0 8
BITMAP
70
58
78
D8
F8
ENDCHAR
STARTCHAR guillemotleft
ENCODING 171
SWIDTH 555 0
DWIDTH 9 0
BBX 7 6 1 1
BITMAP
12
26
4C
CC
24
12
ENDCHAR
STARTCHAR logicalnot
ENCODING 172
SWIDTH 538 0
DWIDTH 9 0
BBX 9 5 0 1
BITMAP
FF80
0180
0180
0180
0180
ENDCHAR
STARTCHAR uni00AD
ENCODING 173
SWIDTH 395 0
DWIDTH 7 0
BBX 5 1 1 3
BITMAP
F8
ENDCHAR
STARTCHAR registered
ENCODING 174
SWIDTH 537 0
DWIDTH 9 0
BBX 7 9 1 5
BITMAP
10
6C
BA
AA
BA
AA
AA
44
38
ENDCHAR
STARTCHAR macron
ENCODING 175
SWIDTH 340 0
DWIDTH 6 0
BBX 6 1 0 11
BITMAP
FC
ENDCHAR
STARTCHAR degree
ENCODING 176
SWIDTH 363 0
DWIDTH 6 0
BBX 5 5 1 8
BITMAP
70
88
88
88
70
ENDCHAR
STARTCHAR plusminus
ENCODING 177
SWIDTH 578 0
DWIDTH 10 0
BBX 8 11 1 1
BITMAP
10
10
10
10
FF
10
10
10
00
00
FF
ENDCHAR
STARTCHAR uni00B2
ENCODING 178
SWIDTH 350 0
DWIDTH 6 0
BBX 5 6 0 8
BITMAP
F8
48
48
10
68
F8
ENDCHAR
STARTCHAR uni00B3
ENCODING 179
SWIDTH 337 0
DWIDTH 6 0
BBX 5 6 0 8
BITMAP
78
58
10
38
C8
F8
ENDCHAR
STARTCHAR acute
ENCODING 180
SWIDTH 248 0
DWIDTH 4 0
BBX 3 3 1 10
BITMAP
60
60
80
ENDCHAR
STARTCHAR uni00B5
ENCODING 181
SWIDTH 570 0
DWIDTH 10 0
BBX 7 12 1 -4
BITMAP
C6
C6
C6
C6
C6
C6
C6
FE
80
80
C0
C0
ENDCHAR
STARTCHAR paragraph
ENCODING 182
SWIDTH 626 0
DWIDTH 11 0
BBX 9 15 0 -2
BITMAP
3F80
7900
7900
F900
7900
7900
3900
0900
0900
0900
0900
0900
0900
0900
0900
ENDCHAR
STARTCHAR periodcentered
ENCODING 183
SWIDTH 166 0
DWIDTH 3 0
BBX 3 2 0 3
BITMAP
E0
C0
ENDCHAR
STARTCHAR cedilla
ENCODING 184
SWIDTH 227 0
DWIDTH 4 0
BBX 4 4 0 -4
BITMAP
40
20
30
E0
ENDCHAR
STARTCHAR uni00B9
ENCODING 185
SWIDTH 270 0
DWIDTH 5 0
BBX 3 6 1 8
BITMAP
C0
40
40
40
40
E0
ENDCHAR
STARTCHAR ordmasculine
ENCODING 186
SWIDTH 338 0
DWIDTH 6 0
BBX 5 5 0 8
BITMAP
70
C8
C8
C8
70
ENDCHAR
STARTCHAR guillemotright
ENCODING 187
SWIDTH 555 0
DWIDTH 9 0
BBX 7 6 1 1
BITMAP
88
44
26
36
44
88
ENDCHAR
STARTCHAR onequarter
ENCODING 188
SWIDTH 913 0
DWIDTH 16 0
BBX 11 13 2 0
BITMAP
C040
4080
4080
4100
4100
4200
4460
A4E0
0960
0A60
1260
11E0
2060
ENDCHAR
STARTCHAR onehalf
ENCODING 189
SWIDTH 913 0
DWIDTH 16 0
BBX 12 13 2 0
BITMAP
C040
4080
4080
4100
4200
4200
44E0
A530
09B0
0820
1040
3190
21F0
ENDCHAR
STARTCHAR threequarters
ENCODING 190
SWIDTH 913 0
DWIDTH 16 0
BBX 13 13 1 0
BITMAP
7820
5840
1840
3880
0880
C900
9230
6270
04B0
0530
0938
08F0
1030
ENDCHAR
STARTCHAR questiondown
ENCODING 191
SWIDTH 414 0
DWIDTH 7 0
BBX 6 14 1 -6
BITMAP
30
30
00
00
10
10
30
60
E0
C0
88
8C
88
70
ENDCHAR
STARTCHAR Agrave
ENCODING 192
SWIDTH 686 0
DWIDTH 12 0
BBX 10 16 1 0
BITMAP
1800
0C00
0000
0800
0C00
0C00
1C00
1E00
2600
2600
2700
4300
7F00
4380
8180
C3C0
ENDCHAR
STARTCHAR Aacute
ENCODING 193
SWIDTH 686 0
DWIDTH 12 0
BBX 10 16 1 0
BITMAP
0600
1C00
0000
0800
0C00
0C00
1C00
1E00
2600
2600
2700
4300
7F00
4380
8180
C3C0
ENDCHAR
STARTCHAR Acircumflex
ENCODING 194
SWIDTH 686 0
DWIDTH 12 0
BBX 10 16 1 0
BITMAP
0C00
1200
0000
0800
0C00
0C00
1C00
1E00
2600
2600
2700
4300
7F00
4380
8180
C3C0
ENDCHAR
STARTCHAR Atilde
ENCODING 195
SWIDTH 686 0
DWIDTH 12 0
BBX 10 17 1 0
BITMAP
1900
2E00
0000
0000
0800
0C00
0C00
1C00
1E00
2600
2600
2700
4300
7F00
4380
8180
C3C0
ENDCHAR
STARTCHAR Adieresis
ENCODING 196
SWIDTH 686 0
DWIDTH 12 0
BBX 10 16 1 0
BITMAP
3200
3200
0000
0800
0C00
0C00
1C00
1E00
2600
2600
2700
4300
7F00
4380
8180
C3C0
ENDCHAR
STARTCHAR Aring
ENCODING 197
SWIDTH 686 0
DWIDTH 12 0
BBX 10 17 1 0
BITMAP
0800
1400
0C00
0000
0800
0C00
0C00
1C00
1E00
2600
2600
2700
4300
7F00
4380
8180
C3C0
ENDCHAR
STARTCHAR AE
ENCODING 198
SWIDTH 1047 0
DWIDTH 18 0
BBX 16 13 1 0
BITMAP
03FF
03C3
05C1
05C1
09C8
09C8
11D8
11E8
21C8
3FC0
41C1
41C1
C3FF
ENDCHAR
STARTCHAR Ccedilla
ENCODING 199
SWIDTH 687 0
DWIDTH 12 0
BBX 10 17 1 -4
BITMAP
1F40
30C0
6040
E040
E000
E000
E000
E000
E000
E040
6040
20C0
1B40
0400
0200
0300
0400
ENDCHAR
STARTCHAR Egrave
ENCODING 200
SWIDTH 691 0
DWIDTH 12 0
BBX 10 16 1 0
BITMAP
1800
0600
0000
FF80
6080
6080
6000
6200
6200
6E00
7600
6200
6040
6040
6040
FFC0
ENDCHAR
STARTCHAR Eacute
ENCODING 201
SWIDTH 691 0
DWIDTH 12 0
BBX 10 16 1 0
BITMAP
0600
1800
0000
FF80
6080
6080
6000
6200
6200
6E00
7600
6200
6040
6040
6040
FFC0
ENDCHAR
STARTCHAR Ecircumflex
ENCODING 202
SWIDTH 691 0
DWIDTH 12 0
BBX 10 16 1 0
BITMAP
0C00
1200
0000
FF80
6080
6080
6000
6200
6200
6E00
7600
6200
6040
6040
6040
FFC0
ENDCHAR
STARTCHAR Edieresis
ENCODING 203
SWIDTH 691 0
DWIDTH 12 0
BBX 10 16 1 0
BITMAP
3200
3200
0000
FF80
6080
6080
6000
6200
6200
6E00
7600
6200
6040
6040
6040
FFC0
ENDCHAR
STARTCHAR Igrave
ENCODING 204
SWIDTH 379 0
DWIDTH 6 0
BBX 4 16 1 0
BITMAP
C0
30
00
F0
60
60
60
60
60
60
60
60
60
60
60
F0
ENDCHAR
STARTCHAR Iacute
ENCODING 205
SWIDTH 379 0
DWIDTH 6 0
BBX 4 16 1 0
BITMAP
30
C0
00
F0
60
60
60
60
60
60
60
60
60
60
60
F0
ENDCHAR
STARTCHAR Icircumflex
ENCODING 206
SWIDTH 379 0
DWIDTH 6 0
BBX 4 16 1 0
BITMAP
60
90
00
F0
60
60
60
60
60
60
60
60
60
60
60
F0
ENDCHAR
STARTCHAR Idieresis
ENCODING 207
SWIDTH 379 0
DWIDTH 6 0
BBX 5 16 1 0
BITMAP
98
98
00
F0
60
60
60
60
60
60
60
60
60
60
60
F0
ENDCHAR
STARTCHAR Eth
ENCODING 208
SWIDTH 777 0
DWIDTH 13 0
BBX 12 13 0 0
BITMAP
7F80
3040
3060
3030
3030
3030
FC30
3030
3030
3030
3060
3040
7F80
ENDCHAR
STARTCHAR Ntilde
ENCODING 209
SWIDTH 744 0
DWIDTH 13 0
BBX 10 17 1 0
BITMAP
1800
2F00
0000
0000
F0C0
7840
5840
5C40
4E40
4E40
4740
43C0
43C0
41C0
40C0
40C0
E040
ENDCHAR
STARTCHAR Ograve
ENCODING 210
SWIDTH 782 0
DWIDTH 13 0
BBX 12 16 1 0
BITMAP
1800
0600
0000
1F00
2080
60C0
E060
E060
C060
C070
C060
E060
E060
60C0
2080
1F00
ENDCHAR
STARTCHAR Oacute
ENCODING 211
SWIDTH 782 0
DWIDTH 13 0
BBX 12 16 1 0
BITMAP
0300
0C00
0000
1F00
2080
60C0
E060
E060
C060
C070
C060
E060
E060
60C0
2080
1F00
ENDCHAR
STARTCHAR Ocircumflex
ENCODING 212
SWIDTH 782 0
DWIDTH 13 0
BBX 12 16 1 0
BITMAP
0600
0B00
0000
1F00
2080
60C0
E060
E060
C060
C070
C060
E060
E060
60C0
2080
1F00
ENDCHAR
STARTCHAR Otilde
ENCODING 213
SWIDTH 782 0
DWIDTH 13 0
BBX 12 17 1 0
BITMAP
0C80
1700
0000
0000
1F00
2080
60C0
E060
E060
C060
C070
C060
E060
E060
60C0
2080
1F00
ENDCHAR
STARTCHAR Odieresis
ENCODING 214
SWIDTH 782 0
DWIDTH 13 0
BBX 12 16 1 0
BITMAP
1B00
1B00
0000
1F00
2080
60C0
E060
E060
C060
C070
C060
E060
E060
60C0
2080
1F00
ENDCHAR
STARTCHAR multiply
ENCODING 215
SWIDTH 578 0
DWIDTH 10 0
BBX 8 7 1 2
BITMAP
42
24
18
18
24
42
81
ENDCHAR
STARTCHAR Oslash
ENCODING 216
SWIDTH 753 0
DWIDTH 13 0
BBX 11 14 1 -1
BITMAP
1F40
2080
60C0
C1E0
C2E0
C460
C460
C860
D0E0
D0E0
60C0
2080
5F00
8000
ENDCHAR
STARTCHAR Ugrave
ENCODING 217
SWIDTH 737 0
DWIDTH 13 0
BBX 10 16 1 0
BITMAP
1800
0600
0000
F0C0
6040
6040
6040
6040
6040
6040
6040
6040
6040
6040
3080
1F00
ENDCHAR
STARTCHAR Uacute
ENCODING 218
SWIDTH 737 0
DWIDTH 13 0
BBX 10 16 1 0
BITMAP
0700
1800
0000
F0C0
6040
6040
6040
6040
6040
6040
6040
6040
6040
6040
3080
1F00
ENDCHAR
STARTCHAR Ucircumflex
ENCODING 219
SWIDTH 737 0
DWIDTH 13 0
BBX 10 16 1 0
BITMAP
0C00
1200
0000
F0C0
6040
6040
6040
6040
6040
6040
6040
6040
6040
6040
3080
1F00
ENDCHAR
STARTCHAR Udieresis
ENCODING 220
SWIDTH 737 0
DWIDTH 13 0
BBX 10 16 1 0
BITMAP
0900
0900
0000
F0C0
6040
6040
6040
6040
6040
6040
6040
6040
6040
6040
3080
1F00
ENDCHAR
STARTCHAR Yacute
ENCODING 221
SWIDTH 657 0
DWIDTH 11 0
BBX 11 16 0 0
BITMAP
0700
0800
0000
F0E0
7040
3880
1880
1D00
0D00
0E00
0600
0600
0600
0600
0600
0F00
ENDCHAR
STARTCHAR Thorn
ENCODING 222
SWIDTH 680 0
DWIDTH 12 0
BBX 10 13 1 0
BITMAP
F800
6000
6000
7F00
6180
60C0
60C0
61C0
6180
7F00
6000
6000
F800
ENDCHAR
STARTCHAR germandbls
ENCODING 223
SWIDTH 561 0
DWIDTH 10 0
BBX 8 13 1 0
BITMAP
3C
66
46
46
46
4C
46
43
43
43
43
5A
DC
ENDCHAR
STARTCHAR agrave
ENCODING 224
SWIDTH 506 0
DWIDTH 9 0
BBX 7 11 1 0
BITMAP
60
38
00
78
CC
4C
0C
7C
CC
CC
F6
ENDCHAR
STARTCHAR aacute
ENCODING 225
SWIDTH 506 0
DWIDTH 9 0
BBX 7 11 1 0
BITMAP
1C
30
00
78
CC
4C
0C
7C
CC
CC
F6
ENDCHAR
STARTCHAR acircumflex
ENCODING 226
SWIDTH 506 0
DWIDTH 9 0
BBX 7 11 1 0
BITMAP
30
68
00
78
CC
4C
0C
7C
CC
CC
F6
ENDCHAR
STARTCHAR atilde
ENCODING 227
SWIDTH 506 0
DWIDTH 9 0
BBX 7 12 1 0
BITMAP
60
BC
00
00
78
CC
4C
0C
7C
CC
CC
F6
ENDCHAR
STARTCHAR adieresis
ENCODING 228
SWIDTH 506 0
DWIDTH 9 0
BBX 7 12 1 0
BITMAP
6C
6C
00
00
78
CC
4C
0C
7C
CC
CC
F6
ENDCHAR
STARTCHAR aring
ENCODING 229
SWIDTH 506 0
DWIDTH 9 0
BBX 7 13 1 0
BITMAP
38
48
38
00
00
78
CC
4C
0C
7C
CC
CC
F6
ENDCHAR
STARTCHAR ae
ENCODING 230
SWIDTH 755 0
DWIDTH 13 0
BBX 11 8 1 0
BITMAP
7BC0
CC60
4C60
0F80
7C00
CC00
D420
F3C0
ENDCHAR
STARTCHAR ccedilla
ENCODING 231
SWIDTH 505 0
DWIDTH 9 0
BBX 7 12 1 -4
BITMAP
3C
46
C6
C0
C0
C2
44
38
20
18
08
30
ENDCHAR
STARTCHAR egrave
ENCODING 232
SWIDTH 505 0
DWIDTH 9 0
BBX 7 11 1 0
BITMAP
60
38
00
38
44
C6
F8
C0
C2
44
38
ENDCHAR
STARTCHAR eacute
ENCODING 233
SWIDTH 505 0
DWIDTH 9 0
BBX 7 11 1 0
BITMAP
1C
30
00
38
44
C6
F8
C0
C2
44
38
ENDCHAR
STARTCHAR ecircumflex
ENCODING 234
SWIDTH 505 0
DWIDTH 9 0
BBX 7 11 1 0
BITMAP
30
68
00
38
44
C6
F8
C0
C2
44
38
ENDCHAR
STARTCHAR edieresis
ENCODING 235
SWIDTH 505 0
DWIDTH 9 0
BBX 7 12 1 0
BITMAP
6C
6C
00
00
38
44
C6
F8
C0
C2
44
38
ENDCHAR
STARTCHAR igrave
ENCODING 236
SWIDTH 330 0
DWIDTH 6 0
BBX 3 11 1 0
BITMAP
80
E0
00
00
E0
60
60
60
60
60
60
ENDCHAR
STARTCHAR iacute
ENCODING 237
SWIDTH 330 0
DWIDTH 6 0
BBX 4 11 1 0
BITMAP
30
60
80
00
E0
60
60
60
60
60
60
ENDCHAR
STARTCHAR icircumflex
ENCODING 238
SWIDTH 330 0
DWIDTH 6 0
BBX 4 11 1 0
BITMAP
60
90
00
00
E0
60
60
60
60
60
60
ENDCHAR
STARTCHAR idieresis
ENCODING 239
SWIDTH 330 0
DWIDTH 6 0
BBX 5 12 0 0
BITMAP
C8
48
00
00
00
70
30
30
30
30
30
30
ENDCHAR
STARTCHAR eth
ENCODING 240
SWIDTH 579 0
DWIDTH 10 0
BBX 9 13 0 0
BITMAP
1000
0C80
0700
0B00
0100
0180
3F80
6180
6180
E180
6180
6100
1E00
ENDCHAR
STARTCHAR ntilde
ENCODING 241
SWIDTH 596 0
DWIDTH 10 0
BBX 8 12 1 0
BITMAP
32
5C
00
00
EE
73
63
63
63
63
63
E7
ENDCHAR
STARTCHAR ograve
ENCODING 242
SWIDTH 562 0
DWIDTH 10 0
BBX 8 11 1 0
BITMAP
70
18
00
3C
46
C6
C3
C3
C6
46
3C
ENDCHAR
STARTCHAR oacute
ENCODING 243
SWIDTH 562 0
DWIDTH 10 0
BBX 8 11 1 0
BITMAP
0C
38
00
3C
46
C6
C3
C3
C6
46
3C
ENDCHAR
STARTCHAR ocircumflex
ENCODING 244
SWIDTH 562 0
DWIDTH 10 0
BBX 8 11 1 0
BITMAP
18
24
00
3C
46
C6
C3
C3
C6
46
3C
ENDCHAR
STARTCHAR otilde
ENCODING 245
SWIDTH 562 0
DWIDTH 10 0
BBX 8 12 1 0
BITMAP
32
5C
00
00
3C
46
C6
C3
C3
C6
46
3C
ENDCHAR
STARTCHAR odieresis
ENCODING 246
SWIDTH 562 0
DWIDTH 10 0
BBX 8 12 1 0
BITMAP
64
24
00
00
3C
46
C6
C3
C3
C6
46
3C
ENDCHAR
STARTCHAR divide
ENCODING 247
SWIDTH 578 0
DWIDTH 10 0
BBX 8 8 1 2
BITMAP
18
18
00
00
FF
00
18
18
ENDCHAR
STARTCHAR oslash
ENCODING 248
SWIDTH 562 0
DWIDTH 10 0
BBX 8 9 1 -1
BITMAP
3E
46
C6
CB
D3
E6
66
7C
80
ENDCHAR
STARTCHAR ugrave
ENCODING 249
SWIDTH 570 0
DWIDTH 10 0
BBX 7 11 1 0
BITMAP
30
0C
00
C6
C6
C6
C6
C6
C6
C6
7E
ENDCHAR
STARTCHAR uacute
ENCODING 250
SWIDTH 570 0
DWIDTH 10 0
BBX 7 11 1 0
BITMAP
0C
30
00
C6
C6
C6
C6
C6
C6
C6
7E
ENDCHAR
STARTCHAR ucircumflex
ENCODING 251
SWIDTH 570 0
DWIDTH 10 0
BBX 7 11 1 0
BITMAP
18
24
00
C6
C6
C6
C6
C6
C6
C6
7E
ENDCHAR
STARTCHAR udieresis
ENCODING 252
SWIDTH 570 0
DWIDTH 10 0
BBX 7 13 1 0
BITMAP
24
64
00
00
00
C6
C6
C6
C6
C6
C6
C6
7E
ENDCHAR
STARTCHAR yacute
ENCODING 253
SWIDTH 486 0
DWIDTH 8 0
BBX 7 17 0 -6
BITMAP
0C
30
00
62
62
34
34
1C
18
18
08
10
10
10
20
E0
C0
ENDCHAR
STARTCHAR thorn
ENCODING 254
SWIDTH 570 0
DWIDTH 10 0
BBX 8 19 1 -6
BITMAP
C0
C0
C0
C0
C0
DC
E6
C3
C3
C3
C3
E2
DC
C0
C0
C0
C0
C0
E0
ENDCHAR
STARTCHAR ydieresis
ENCODING 255
SWIDTH 486 0
DWIDTH 8 0
BBX 7 19 0 -6
BITMAP
26
26
00
00
00
62
62
34
34
1C
18
18
08
10
10
10
20
E0
C0
ENDCHAR
STARTCHAR Amacron
ENCODING 256
SWIDTH 686 0
DWIDTH 12 0
BBX 10 16 1 0
BITMAP
3F00
0000
0000
0800
0C00
0C00
1C00
1E00
2600
2600
2700
4300
7F00
4380
8180
C3C0
ENDCHAR
STARTCHAR amacron
ENCODING 257
SWIDTH 506 0
DWIDTH 9 0
BBX 7 12 1 0
BITMAP
7C
00
00
00
78
CC
4C
0C
7C
CC
CC
F6
ENDCHAR
STARTCHAR Abreve
ENCODING 258
SWIDTH 686 0
DWIDTH 12 0
BBX 10 16 1 0
BITMAP
2200
1E00
0000
0800
0C00
0C00
1C00
1E00
2600
2600
2700
4300
7F00
4380
8180
C3C0
ENDCHAR
STARTCHAR abreve
ENCODING 259
SWIDTH 506 0
DWIDTH 9 0
BBX 7 11 1 0
BITMAP
44
78
00
78
CC
4C
0C
7C
CC
CC
F6
ENDCHAR
STARTCHAR Aogonek
ENCODING 260
SWIDTH 686 0
DWIDTH 12 0
BBX 10 17 1 -4
BITMAP
0800
0C00
0C00
1C00
1E00
2600
2600
2700
4300
7F00
4380
8180
8180
4340
0200
0200
0300
ENDCHAR
STARTCHAR aogonek
ENCODING 261
SWIDTH 506 0
DWIDTH 9 0
BBX 7 12 1 -4
BITMAP
78
CC
4C
0C
7C
CC
CC
F6
08
08
18
0C
ENDCHAR
STARTCHAR Cacute
ENCODING 262
SWIDTH 687 0
DWIDTH 12 0
BBX 10 16 1 0
BITMAP
0300
0C00
0000
1F40
30C0
6040
E040
E000
E000
E000
E000
E000
E040
6040
20C0
1F40
ENDCHAR
STARTCHAR cacute
ENCODING 263
SWIDTH 505 0
DWIDTH 9 0
BBX 7 11 1 0
BITMAP
1C
30
00
3C
46
C4
C0
C0
C2
44
38
ENDCHAR
STARTCHAR Ccircumflex
ENCODING 264
SWIDTH 687 0
DWIDTH 12 0
BBX 10 16 1 0
BITMAP
0600
0900
0000
1F40
30C0
6040
E040
E000
E000
E000
E000
E000
E040
6040
20C0
1F40
ENDCHAR
STARTCHAR ccircumflex
ENCODING 265
SWIDTH 505 0
DWIDTH 9 0
BBX 7 11 1 0
BITMAP
30
68
00
3C
46
C4
C0
C0
C2
44
38
ENDCHAR
STARTCHAR Cdotaccent
ENCODING 266
SWIDTH 687 0
DWIDTH 12 0
BBX 10 16 1 0
BITMAP
0600
0600
0000
1F40
30C0
6040
E040
E000
E000
E000
E000
E000
E040
6040
20C0
1F40
ENDCHAR
STARTCHAR cdotaccent
ENCODING 267
SWIDTH 505 0
DWIDTH 9 0
BBX 7 12 1 0
BITMAP
30
30
00
00
3C
46
C4
C0
C0
C2
44
38
ENDCHAR
STARTCHAR Ccaron
ENCODING 268
SWIDTH 687 0
DWIDTH 12 0
BBX 10 16 1 0
BITMAP
0900
0600
0000
1F40
30C0
6040
E040
E000
E000
E000
E000
E000
E040
6040
20C0
1F40
ENDCHAR
STARTCHAR ccaron
ENCODING 269
SWIDTH 505 0
DWIDTH 9 0
BBX 7 13 1 0
BITMAP
44
28
38
00
00
3C
46
C4
C0
C0
C2
44
38
ENDCHAR
STARTCHAR Dcaron
ENCODING 270
SWIDTH 777 0
DWIDTH 13 0
BBX 11 16 1 0
BITMAP
1900
0E00
0000
FF00
6080
60C0
6060
6060
6060
6060
6060
6060
6060
60C0
6080
FF00
ENDCHAR
STARTCHAR dcaron
ENCODING 271
SWIDTH 639 0
DWIDTH 11 0
BBX 8 13 0 0
BITMAP
C3
E3
23
43
03
3F
23
63
63
63
63
23
1F
ENDCHAR
STARTCHAR Dcroat
ENCODING 272
SWIDTH 777 0
DWIDTH 13 0
BBX 12 13 0 0
BITMAP
7F80
3040
3060
3030
3030
3030
FC30
3030
3030
3030
3060
3040
7F80
ENDCHAR
STARTCHAR dcroat
ENCODING 273
SWIDTH 568 0
DWIDTH 10 0
BBX 8 13 1 0
BITMAP
06
06
1F
06
06
3E
46
C6
C6
C6
C6
46
7E
ENDCHAR
STARTCHAR Emacron
ENCODING 274
SWIDTH 691 0
DWIDTH 12 0
BBX 10 16 1 0
BITMAP
3F00
0000
0000
FF80
6080
6080
6000
6200
6200
6E00
7600
6200
6040
6040
6040
FFC0
ENDCHAR
STARTCHAR emacron
ENCODING 275
SWIDTH 505 0
DWIDTH 9 0
BBX 7 12 1 0
BITMAP
7C
00
00
00
38
44
C6
F8
C0
C2
44
38
ENDCHAR
STARTCHAR Ebreve
ENCODING 276
SWIDTH 691 0
DWIDTH 12 0
BBX 10 16 1 0
BITMAP
2200
1E00
0000
FF80
6080
6080
6000
6200
6200
6E00
7600
6200
6040
6040
6040
FFC0
ENDCHAR
STARTCHAR ebreve
ENCODING 277
SWIDTH 505 0
DWIDTH 9 0
BBX 7 11 1 0
BITMAP
44
78
00
38
44
C6
F8
C0
C2
44
38
ENDCHAR
STARTCHAR Edotaccent
ENCODING 278
SWIDTH 691 0
DWIDTH 12 0
BBX 10 16 1 0
BITMAP
0C00
0C00
0000
FF80
6080
6080
6000
6200
6200
6E00
7600
6200
6040
6040
6040
FFC0
ENDCHAR
STARTCHAR edotaccent
ENCODING 279
SWIDTH 505 0
DWIDTH 9 0
BBX 7 12 1 0
BITMAP
30
30
00
00
38
44
C6
F8
C0
C2
44
38
ENDCHAR
STARTCHAR Eogonek
ENCODING 280
SWIDTH 691 0
DWIDTH 12 0
BBX 10 17 1 -4
BITMAP
FF80
6080
6080
6000
6200
6200
6E00
7600
6200
6040
6040
6040
61C0
9E00
0400
0400
0700
ENDCHAR
STARTCHAR eogonek
ENCODING 281
SWIDTH 508 0
DWIDTH 9 0
BBX 8 12 0 -4
BITMAP
1C
22
63
7C
60
61
22
1C
60
80
80
60
ENDCHAR
STARTCHAR Ecaron
ENCODING 282
SWIDTH 691 0
DWIDTH 12 0
BBX 10 16 1 0
BITMAP
1200
0C00
0000
FF80
6080
6080
6000
6200
6200
6E00
7600
6200
6040
6040
6040
FFC0
ENDCHAR
STARTCHAR ecaron
ENCODING 283
SWIDTH 505 0
DWIDTH 9 0
BBX 7 13 1 0
BITMAP
44
28
38
00
00
38
44
C6
F8
C0
C2
44
38
ENDCHAR
STARTCHAR Gcircumflex
ENCODING 284
SWIDTH 737 0
DWIDTH 13 0
BBX 10 16 1 0
BITMAP
0C00
1200
0000
1F40
30C0
6040
E040
E000
E000
C000
C000
E1C0
E0C0
60C0
2080
1F00
ENDCHAR
STARTCHAR gcircumflex
ENCODING 285
SWIDTH 518 0
DWIDTH 9 0
BBX 7 17 1 -6
BITMAP
30
68
00
3A
4C
CC
CC
48
F0
80
FC
FE
82
82
82
84
78
ENDCHAR
STARTCHAR Gbreve
ENCODING 286
SWIDTH 737 0
DWIDTH 13 0
BBX 10 16 1 0
BITMAP
1100
0E00
0000
1F40
30C0
6040
E040
E000
E000
C000
C000
E1C0
E0C0
60C0
2080
1F00
ENDCHAR
STARTCHAR gbreve
ENCODING 287
SWIDTH 518 0
DWIDTH 9 0
BBX 7 17 1 -6
BITMAP
44
38
00
3A
4C
CC
CC
48
F0
80
FC
FE
82
82
82
84
78
ENDCHAR
STARTCHAR Gdotaccent
ENCODING 288
SWIDTH 737 0
DWIDTH 13 0
BBX 10 16 1 0
BITMAP
0C00
0C00
0000
1F40
30C0
6040
E040
E000
E000
C000
C000
E1C0
E0C0
60C0
2080
1F00
ENDCHAR
STARTCHAR gdotaccent
ENCODING 289
SWIDTH 518 0
DWIDTH 9 0
BBX 7 18 1 -6
BITMAP
30
30
00
00
3A
4C
CC
CC
48
F0
80
FC
FE
82
82
82
84
78
ENDCHAR
STARTCHAR Gcommaaccent
ENCODING 290
SWIDTH 737 0
DWIDTH 13 0
BBX 10 18 1 -5
BITMAP
1F40
30C0
6040
E040
E000
E000
C000
C000
E1C0
E0C0
60C0
2080
1F00
0000
0C00
0E00
0400
0800
ENDCHAR
STARTCHAR gcommaaccent
ENCODING 291
SWIDTH 518 0
DWIDTH 9 0
BBX 7 19 1 -6
BITMAP
10
20
38
38
00
3A
4C
CC
CC
48
F0
80
FC
FE
82
82
82
84
78
ENDCHAR
STARTCHAR Hcircumflex
ENCODING 292
SWIDTH 801 0
DWIDTH 14 0
BBX 11 16 1 0
BITMAP
0600
0900
0000
F1E0
60E0
60E0
60E0
60E0
60E0
7FE0
60E0
60E0
60E0
60E0
60E0
F1E0
ENDCHAR
STARTCHAR hcircumflex
ENCODING 293
SWIDTH 596 0
DWIDTH 10 0
BBX 8 13 1 0
BITMAP
E0
60
6C
73
60
6E
73
63
63
63
63
63
E7
ENDCHAR
STARTCHAR Hbar
ENCODING 294
SWIDTH 801 0
DWIDTH 14 0
BBX 13 13 0 0
BITMAP
78F0
3070
3070
FFF8
3070
3070
3FF0
3070
3070
3070
3070
3070
78F0
ENDCHAR
STARTCHAR hbar
ENCODING 295
SWIDTH 596 0
DWIDTH 10 0
BBX 9 13 0 0
BITMAP
7000
3000
FE00
3000
3000
3700
3980
3180
3180
3180
3180
3180
7380
ENDCHAR
STARTCHAR Itilde
ENCODING 296
SWIDTH 379 0
DWIDTH 6 0
BBX 6 17 0 0
BITMAP
64
BC
00
00
78
30
30
30
30
30
30
30
30
30
30
30
78
ENDCHAR
STARTCHAR itilde
ENCODING 297
SWIDTH 330 0
DWIDTH 6 0
BBX 6 12 0 0
BITMAP
64
F8
00
00
00
70
30
30
30
30
30
30
ENDCHAR
STARTCHAR Imacron
ENCODING 298
SWIDTH 379 0
DWIDTH 6 0
BBX 5 16 1 0
BITMAP
F8
00
00
F0
60
60
60
60
60
60
60
60
60
60
60
F0
ENDCHAR
STARTCHAR imacron
ENCODING 299
SWIDTH 330 0
DWIDTH 6 0
BBX 6 12 0 0
BITMAP
FC
00
00
00
00
70
30
30
30
30
30
30
ENDCHAR
STARTCHAR Ibreve
ENCODING 300
SWIDTH 379 0
DWIDTH 6 0
BBX 4 16 1 0
BITMAP
90
70
00
F0
60
60
60
60
60
60
60
60
60
60
60
F0
ENDCHAR
STARTCHAR ibreve
ENCODING 301
SWIDTH 330 0
DWIDTH 6 0
BBX 5 11 0 0
BITMAP
88
78
00
00
70
30
30
30
30
30
30
ENDCHAR
STARTCHAR Iogonek
ENCODING 302
SWIDTH 379 0
DWIDTH 6 0
BBX 4 17 1 -4
BITMAP
F0
60
60
60
60
60
60
60
60
60
60
60
60
D0
80
80
E0
ENDCHAR
STARTCHAR iogonek
ENCODING 303
SWIDTH 330 0
DWIDTH 6 0
BBX 4 16 0 -4
BITMAP
30
30
00
00
00
70
30
30
30
30
30
30
40
40
80
E0
ENDCHAR
STARTCHAR Idotaccent
ENCODING 304
SWIDTH 379 0
DWIDTH 6 0
BBX 4 16 1 0
BITMAP
60
60
00
F0
60
60
60
60
60
60
60
60
60
60
60
F0
ENDCHAR
STARTCHAR dotlessi
ENCODING 305
SWIDTH 330 0
DWIDTH 6 0
BBX 3 7 1 0
BITMAP
E0
60
60
60
60
60
60
ENDCHAR
STARTCHAR IJ
ENCODING 306
SWIDTH 839 0
DWIDTH 14 0
BBX 11 15 1 -2
BITMAP
F1E0
60E0
60E0
60E0
60E0
60E0
60E0
60E0
60E0
60E0
60E0
60E0
66C0
9EC0
0380
ENDCHAR
STARTCHAR ij
ENCODING 307
SWIDTH 640 0
DWIDTH 11 0
BBX 8 19 1 -6
BITMAP
63
63
00
00
00
E3
63
63
63
63
63
63
63
03
03
03
03
0A
0E
ENDCHAR
STARTCHAR Jcircumflex
ENCODING 308
SWIDTH 460 0
DWIDTH 8 0
BBX 6 18 0 -2
BITMAP
18
24
00
3C
18
18
18
18
18
18
18
18
18
18
18
D8
D0
E0
ENDCHAR
STARTCHAR jcircumflex
ENCODING 309
SWIDTH 330 0
DWIDTH 6 0
BBX 6 17 -1 -6
BITMAP
18
24
00
38
18
18
18
18
18
18
18
18
18
18
10
D0
60
ENDCHAR
STARTCHAR Kcommaaccent
ENCODING 310
SWIDTH 729 0
DWIDTH 12 0
BBX 11 18 1 -5
BITMAP
F1C0
6100
6200
6200
6400
6C00
7C00
6E00
6700
6380
61C0
61C0
60E0
9100
0C00
0C00
0400
0800
ENDCHAR
STARTCHAR kcommaaccent
ENCODING 311
SWIDTH 522 0
DWIDTH 9 0
BBX 8 18 1 -5
BITMAP
C0
40
40
40
40
46
48
50
58
5C
4C
46
47
80
30
38
08
10
ENDCHAR
STARTCHAR kgreenlandic
ENCODING 312
SWIDTH 522 0
DWIDTH 9 0
BBX 8 8 1 0
BITMAP
C6
48
50
58
5C
4C
46
C7
ENDCHAR
STARTCHAR Lacute
ENCODING 313
SWIDTH 662 0
DWIDTH 11 0
BBX 10 16 1 0
BITMAP
3000
C000
0000
F800
7000
7000
7000
7000
7000
7000
7000
7000
7040
7040
70C0
FFC0
ENDCHAR
STARTCHAR lacute
ENCODING 314
SWIDTH 296 0
DWIDTH 5 0
BBX 4 13 1 0
BITMAP
C0
40
70
C0
40
40
40
40
40
40
40
40
E0
ENDCHAR
STARTCHAR Lcommaaccent
ENCODING 315
SWIDTH 662 0
DWIDTH 11 0
BBX 10 18 1 -5
BITMAP
F800
7000
7000
7000
7000
7000
7000
7000
7000
7040
7040
70C0
71C0
8E00
1C00
1C00
0400
0800
ENDCHAR
STARTCHAR lcommaaccent
ENCODING 316
SWIDTH 296 0
DWIDTH 5 0
BBX 3 18 1 -5
BITMAP
C0
40
40
40
40
40
40
40
40
40
40
40
40
A0
C0
E0
20
40
ENDCHAR
STARTCHAR Lcaron
ENCODING 317
SWIDTH 662 0
DWIDTH 11 0
BBX 10 16 1 0
BITMAP
9800
7000
0000
F800
7000
7000
7000
7000
7000
7000
7000
7000
7040
7040
70C0
FFC0
ENDCHAR
STARTCHAR lcaron
ENCODING 318
SWIDTH 328 0
DWIDTH 6 0
BBX 6 13 1 0
BITMAP
CC
5C
44
48
40
40
40
40
40
40
40
40
E0
ENDCHAR
STARTCHAR Ldot
ENCODING 319
SWIDTH 828 0
DWIDTH 14 0
BBX 10 13 1 0
BITMAP
F800
7000
7000
7000
7000
7000
7600
7600
7000
7040
7040
70C0
FFC0
ENDCHAR
STARTCHAR ldot
ENCODING 320
SWIDTH 372 0
DWIDTH 6 0
BBX 6 13 1 0
BITMAP
C0
40
40
40
40
40
40
5C
58
40
40
40
E0
ENDCHAR
STARTCHAR Lslash
ENCODING 321
SWIDTH 662 0
DWIDTH 11 0
BBX 11 13 0 0
BITMAP
7C00
3800
3800
3800
3800
3E00
3800
3800
F800
3820
3820
3860
7FE0
ENDCHAR
STARTCHAR lslash
ENCODING 322
SWIDTH 296 0
DWIDTH 5 0
BBX 5 13 0 0
BITMAP
60
20
20
20
20
38
60
A0
20
20
20
20
70
ENDCHAR
STARTCHAR Nacute
ENCODING 323
SWIDTH 744 0
DWIDTH 13 0
BBX 10 16 1 0
BITMAP
0700
1800
0000
F0C0
7840
5840
5C40
4E40
4E40
4740
43C0
43C0
41C0
40C0
40C0
E040
ENDCHAR
STARTCHAR nacute
ENCODING 324
SWIDTH 596 0
DWIDTH 10 0
BBX 8 11 1 0
BITMAP
0C
30
00
EE
73
63
63
63
63
63
E7
ENDCHAR
STARTCHAR Ncommaaccent
ENCODING 325
SWIDTH 744 0
DWIDTH 13 0
BBX 10 18 1 -5
BITMAP
F0C0
7840
5840
5C40
4E40
4E40
4740
43C0
43C0
41C0
40C0
40C0
4040
A000
0C00
0E00
0400
0800
ENDCHAR
STARTCHAR ncommaaccent
ENCODING 326
SWIDTH 596 0
DWIDTH 10 0
BBX 8 13 1 -5
BITMAP
EE
73
63
63
63
63
63
63
84
18
18
08
10
ENDCHAR
STARTCHAR Ncaron
ENCODING 327
SWIDTH 744 0
DWIDTH 13 0
BBX 10 16 1 0
BITMAP
1300
0E00
0000
F0C0
7840
5840
5C40
4E40
4E40
4740
43C0
43C0
41C0
40C0
40C0
E040
ENDCHAR
STARTCHAR ncaron
ENCODING 328
SWIDTH 596 0
DWIDTH 10 0
BBX 8 13 1 0
BITMAP
22
34
18
00
00
EE
73
63
63
63
63
63
E7
ENDCHAR
STARTCHAR napostrophe
ENCODING 329
SWIDTH 596 0
DWIDTH 10 0
BBX 9 13 0 0
BITMAP
C000
A000
4000
4000
8000
7700
3980
3180
3180
3180
3180
3180
7380
ENDCHAR
STARTCHAR Eng
ENCODING 330
SWIDTH 743 0
DWIDTH 13 0
BBX 10 16 1 -3
BITMAP
F0C0
7840
5C40
5C40
4E40
4740
4740
43C0
41C0
41C0
40C0
4040
4040
A340
0380
0100
ENDCHAR
STARTCHAR eng
ENCODING 331
SWIDTH 607 0
DWIDTH 10 0
BBX 8 14 1 -6
BITMAP
EE
73
63
63
63
63
63
63
83
03
03
02
1A
1C
ENDCHAR
STARTCHAR Omacron
ENCODING 332
SWIDTH 782 0
DWIDTH 13 0
BBX 12 16 1 0
BITMAP
1F00
0000
0000
1F00
2080
60C0
E060
E060
C060
C070
C060
E060
E060
60C0
2080
1F00
ENDCHAR
STARTCHAR omacron
ENCODING 333
SWIDTH 562 0
DWIDTH 10 0
BBX 8 12 1 0
BITMAP
7E
00
00
00
3C
46
C6
C3
C3
C6
46
3C
ENDCHAR
STARTCHAR Obreve
ENCODING 334
SWIDTH 782 0
DWIDTH 13 0
BBX 12 16 1 0
BITMAP
1100
0E00
0000
1F00
2080
60C0
E060
E060
C060
C070
C060
E060
E060
60C0
2080
1F00
ENDCHAR
STARTCHAR obreve
ENCODING 335
SWIDTH 562 0
DWIDTH 10 0
BBX 8 11 1 0
BITMAP
44
3C
00
3C
46
C6
C3
C3
C6
46
3C
ENDCHAR
STARTCHAR Ohungarumlaut
ENCODING 336
SWIDTH 782 0
DWIDTH 13 0
BBX 12 16 1 0
BITMAP
0240
06C0
0900
1F00
2080
60C0
E060
E060
C060
C070
C060
E060
E060
60C0
2080
1F00
ENDCHAR
STARTCHAR ohungarumlaut
ENCODING 337
SWIDTH 562 0
DWIDTH 10 0
BBX 8 13 1 0
BITMAP
6C
6C
90
00
00
3C
46
C6
C3
C3
C6
46
3C
ENDCHAR
STARTCHAR OE
ENCODING 338
SWIDTH 1093 0
DWIDTH 19 0
BBX 17 13 1 0
BITMAP
1FFF00
21E100
60E100
C0E000
C0E400
C0E400
C0FC00
C0E400
C0E400
C0E080
60E080
21E080
1FFF80
ENDCHAR
STARTCHAR oe
ENCODING 339
SWIDTH 854 0
DWIDTH 15 0
BBX 13 8 1 0
BITMAP
3CE0
4710
C718
C3E0
C300
C708
4710
3CE0
ENDCHAR
STARTCHAR Racute
ENCODING 340
SWIDTH 691 0
DWIDTH 12 0
BBX 10 16 1 0
BITMAP
0600
1800
0000
FF00
6180
61C0
61C0
6180
6300
7E00
6300
6180
6180
6180
6180
F8C0
ENDCHAR
STARTCHAR racute
ENCODING 341
SWIDTH 432 0
DWIDTH 7 0
BBX 6 11 1 0
BITMAP
38
40
00
FC
6C
60
60
60
60
60
E0
ENDCHAR
STARTCHAR Rcommaaccent
ENCODING 342
SWIDTH 691 0
DWIDTH 12 0
BBX 10 18 1 -5
BITMAP
FF00
6180
61C0
61C0
6180
6300
7E00
6300
6180
6180
6180
6180
60C0
9800
0C00
0C00
0400
0800
ENDCHAR
STARTCHAR rcommaaccent
ENCODING 343
SWIDTH 432 0
DWIDTH 7 0
BBX 6 13 1 -5
BITMAP
FC
6C
60
60
60
60
60
60
80
30
70
10
20
ENDCHAR
STARTCHAR Rcaron
ENCODING 344
SWIDTH 691 0
DWIDTH 12 0
BBX 10 16 1 0
BITMAP
1200
0C00
0000
FF00
6180
61C0
61C0
6180
6300
7E00
6300
6180
6180
6180
6180
F8C0
ENDCHAR
STARTCHAR rcaron
ENCODING 345
SWIDTH 432 0
DWIDTH 7 0
BBX 6 13 1 0
BITMAP
88
58
30
00
00
FC
6C
60
60
60
60
60
E0
ENDCHAR
STARTCHAR Sacute
ENCODING 346
SWIDTH 574 0
DWIDTH 10 0
BBX 8 16 1 0
BITMAP
0C
38
00
3E
42
82
80
E0
FC
7E
1F
03
01
81
82
FC
ENDCHAR
STARTCHAR sacute
ENCODING 347
SWIDTH 438 0
DWIDTH 7 0
BBX 6 11 1 0
BITMAP
18
60
00
78
88
C0
F0
78
0C
88
F8
ENDCHAR
STARTCHAR Scircumflex
ENCODING 348
SWIDTH 574 0
DWIDTH 10 0
BBX 8 16 1 0
BITMAP
18
24
00
3E
42
82
80
E0
FC
7E
1F
03
01
81
82
FC
ENDCHAR
STARTCHAR scircumflex
ENCODING 349
SWIDTH 438 0
DWIDTH 7 0
BBX 6 11 1 0
BITMAP
30
48
00
78
88
C0
F0
78
0C
88
F8
ENDCHAR
STARTCHAR Scedilla
ENCODING 350
SWIDTH 574 0
DWIDTH 10 0
BBX 8 17 1 -4
BITMAP
3E
42
82
80
E0
FC
7E
1F
03
01
81
82
FC
10
0C
0C
10
ENDCHAR
STARTCHAR scedilla
ENCODING 351
SWIDTH 438 0
DWIDTH 7 0
BBX 6 12 1 -4
BITMAP
78
88
C0
F0
78
0C
88
F8
20
10
18
20
ENDCHAR
STARTCHAR Scaron
ENCODING 352
SWIDTH 574 0
DWIDTH 10 0
BBX 8 16 1 0
BITMAP
24
18
00
3E
42
82
80
E0
FC
7E
1F
03
01
81
82
FC
ENDCHAR
STARTCHAR scaron
ENCODING 353
SWIDTH 438 0
DWIDTH 7 0
BBX 6 13 1 0
BITMAP
88
58
30
00
00
78
88
C0
F0
78
0C
88
F8
ENDCHAR
STARTCHAR uni0162
ENCODING 354
SWIDTH 705 0
DWIDTH 12 0
BBX 12 17 0 -4
BITMAP
FFF0
C630
8610
8610
0600
0600
0600
0600
0600
0600
0600
0600
0600
0D00
0300
0300
0400
ENDCHAR
STARTCHAR uni0163
ENCODING 355
SWIDTH 354 0
DWIDTH 6 0
BBX 5 14 1 -4
BITMAP
40
40
C0
60
40
40
40
40
48
70
40
30
10
60
ENDCHAR
STARTCHAR Tcaron
ENCODING 356
SWIDTH 705 0
DWIDTH 12 0
BBX 12 16 0 0
BITMAP
0900
0600
0000
FFF0
C630
8610
8610
0600
0600
0600
0600
0600
0600
0600
0600
0F00
ENDCHAR
STARTCHAR tcaron
ENCODING 357
SWIDTH 366 0
DWIDTH 6 0
BBX 6 13 1 0
BITMAP
18
1C
04
48
40
C0
60
40
40
40
40
48
70
ENDCHAR
STARTCHAR Tbar
ENCODING 358
SWIDTH 705 0
DWIDTH 12 0
BBX 12 13 0 0
BITMAP
FFF0
C630
8610
8610
0600
1F80
0600
0600
0600
0600
0600
0600
0F00
ENDCHAR
STARTCHAR tbar
ENCODING 359
SWIDTH 354 0
DWIDTH 6 0
BBX 6 10 0 0
BITMAP
20
20
60
30
20
FC
20
20
24
38
ENDCHAR
STARTCHAR Utilde
ENCODING 360
SWIDTH 737 0
DWIDTH 13 0
BBX 10 17 1 0
BITMAP
1800
2F00
0000
0000
F0C0
6040
6040
6040
6040
6040
6040
6040
6040
6040
6040
3080
1F00
ENDCHAR
STARTCHAR utilde
ENCODING 361
SWIDTH 570 0
DWIDTH 10 0
BBX 7 12 1 0
BITMAP
32
5C
00
00
C6
C6
C6
C6
C6
C6
C6
7E
ENDCHAR
STARTCHAR Umacron
ENCODING 362
SWIDTH 737 0
DWIDTH 13 0
BBX 10 16 1 0
BITMAP
1F00
0000
0000
F0C0
6040
6040
6040
6040
6040
6040
6040
6040
6040
6040
3080
1F00
ENDCHAR
STARTCHAR umacron
ENCODING 363
SWIDTH 570 0
DWIDTH 10 0
BBX 7 12 1 0
BITMAP
7E
00
00
00
C6
C6
C6
C6
C6
C6
C6
7E
ENDCHAR
STARTCHAR Ubreve
ENCODING 364
SWIDTH 737 0
DWIDTH 13 0
BBX 10 16 1 0
BITMAP
1100
0E00
0000
F0C0
6040
6040
6040
6040
6040
6040
6040
6040
6040
6040
3080
1F00
ENDCHAR
STARTCHAR ubreve
ENCODING 365
SWIDTH 570 0
DWIDTH 10 0
BBX 7 11 1 0
BITMAP
44
3C
00
C6
C6
C6
C6
C6
C6
C6
7E
ENDCHAR
STARTCHAR Uring
ENCODING 366
SWIDTH 737 0
DWIDTH 13 0
BBX 10 17 1 0
BITMAP
0400
0C00
0C00
0000
F0C0
6040
6040
6040
6040
6040
6040
6040
6040
6040
6040
3080
1F00
ENDCHAR
STARTCHAR uring
ENCODING 367
SWIDTH 570 0
DWIDTH 10 0
BBX 7 13 1 0
BITMAP
38
28
38
00
00
C6
C6
C6
C6
C6
C6
C6
7E
ENDCHAR
STARTCHAR Uhungarumlaut
ENCODING 368
SWIDTH 737 0
DWIDTH 13 0
BBX 11 16 1 0
BITMAP
0360
06C0
0900
F0C0
6040
6040
6040
6040
6040
6040
6040
6040
6040
6040
3080
1F00
ENDCHAR
STARTCHAR uhungarumlaut
ENCODING 369
SWIDTH 570 0
DWIDTH 10 0
BBX 7 13 1 0
BITMAP
6C
6C
90
00
00
C6
C6
C6
C6
C6
C6
C6
7E
ENDCHAR
STARTCHAR Uogonek
ENCODING 370
SWIDTH 737 0
DWIDTH 13 0
BBX 10 17 1 -4
BITMAP
F0C0
6040
6040
6040
6040
6040
6040
6040
6040
6040
6040
3080
1F00
0800
0800
1800
0C00
ENDCHAR
STARTCHAR uogonek
ENCODING 371
SWIDTH 570 0
DWIDTH 10 0
BBX 7 12 1 -4
BITMAP
C6
C6
C6
C6
C6
C6
C6
7E
04
08
08
06
ENDCHAR
STARTCHAR Wcircumflex
ENCODING 372
SWIDTH 907 0
DWIDTH 15 0
BBX 14 16 1 0
BITMAP
0300
0480
0000
FF8C
C688
6688
6708
7310
3310
33A0
3BA0
1DA0
1CC0
1CC0
08C0
0880
ENDCHAR
STARTCHAR wcircumflex
ENCODING 373
SWIDTH 686 0
DWIDTH 12 0
BBX 10 11 1 0
BITMAP
0C00
1200
0000
C440
C440
6E80
6E80
7380
3300
3300
2200
ENDCHAR
STARTCHAR Ycircumflex
ENCODING 374
SWIDTH 657 0
DWIDTH 11 0
BBX 11 16 0 0
BITMAP
0600
1900
0000
F0E0
7040
3880
1880
1D00
0D00
0E00
0600
0600
0600
0600
0600
0F00
ENDCHAR
STARTCHAR ycircumflex
ENCODING 375
SWIDTH 486 0
DWIDTH 8 0
BBX 7 17 0 -6
BITMAP
18
24
00
62
62
34
34
1C
18
18
08
10
10
10
20
E0
C0
ENDCHAR
STARTCHAR Ydieresis
ENCODING 376
SWIDTH 657 0
DWIDTH 11 0
BBX 11 16 0 0
BITMAP
1B00
1B00
0000
F0E0
7040
3880
1880
1D00
0D00
0E00
0600
0600
0600
0600
0600
0F00
ENDCHAR
STARTCHAR Zacute
ENCODING 377
SWIDTH 651 0
DWIDTH 11 0
BBX 10 16 0 0
BITMAP
0700
0800
0000
7FC0
41C0
4380
4380
0700
0600
0E00
1C00
1C00
3840
3040
7040
FFC0
ENDCHAR
STARTCHAR zacute
ENCODING 378
SWIDTH 480 0
DWIDTH 8 0
BBX 6 11 1 0
BITMAP
18
60
00
FC
9C
98
30
30
60
E4
FC
ENDCHAR
STARTCHAR Zdotaccent
ENCODING 379
SWIDTH 651 0
DWIDTH 11 0
BBX 10 16 0 0
BITMAP
0400
0E00
0000
7FC0
41C0
4380
4380
0700
0600
0E00
1C00
1C00
3840
3040
7040
FFC0
ENDCHAR
STARTCHAR zdotaccent
ENCODING 380
SWIDTH 480 0
DWIDTH 8 0
BBX 6 13 1 0
BITMAP
30
30
00
00
00
FC
9C
98
30
30
60
E4
FC
ENDCHAR
STARTCHAR Zcaron
ENCODING 381
SWIDTH 651 0
DWIDTH 11 0
BBX 10 16 0 0
BITMAP
1900
0E00
0000
7FC0
41C0
4380
4380
0700
0600
0E00
1C00
1C00
3840
3040
7040
FFC0
ENDCHAR
STARTCHAR zcaron
ENCODING 382
SWIDTH 480 0
DWIDTH 8 0
BBX 6 13 1 0
BITMAP
44
68
30
00
00
FC
9C
98
30
30
60
E4
FC
ENDCHAR
STARTCHAR uni018F
ENCODING 399
SWIDTH 753 0
DWIDTH 13 0
BBX 11 13 1 0
BITMAP
1F00
2080
C0C0
80E0
00E0
0060
0060
FFE0
E0E0
E0E0
60C0
2080
1F00
ENDCHAR
STARTCHAR florin
ENCODING 402
SWIDTH 435 0
DWIDTH 7 0
BBX 12 19 -3 -6
BITMAP
00E0
0130
0300
0300
0700
0F80
0600
0600
0600
0600
0E00
0C00
0C00
0C00
0C00
0C00
0800
D800
7000
ENDCHAR
STARTCHAR Ohorn
ENCODING 416
SWIDTH 782 0
DWIDTH 13 0
BBX 12 14 1 0
BITMAP
0080
1F00
2080
60C0
E060
E060
C060
C070
C060
E060
E060
60C0
2080
1F00
ENDCHAR
STARTCHAR ohorn
ENCODING 417
SWIDTH 562 0
DWIDTH 10 0
BBX 8 9 1 0
BITMAP
02
3C
46
C6
C3
C3
C6
46
3C
ENDCHAR
STARTCHAR Uhorn
ENCODING 431
SWIDTH 737 0
DWIDTH 13 0
BBX 12 14 1 0
BITMAP
0030
F0C0
6040
6040
6040
6040
6040
6040
6040
6040
6040
6040
3080
1F00
ENDCHAR
STARTCHAR uhorn
ENCODING 432
SWIDTH 570 0
DWIDTH 10 0
BBX 9 9 1 0
BITMAP
0080
C700
C600
C600
C600
C600
C600
C600
7E00
ENDCHAR
STARTCHAR uni01C4
ENCODING 452
SWIDTH 1428 0
DWIDTH 24 0
BBX 23 16 1 0
BITMAP
000090
000060
000000
FF07FE
60861C
60C418
606438
606070
606070
6060E0
6060C0
6061C0
606382
60C382
608706
FF07FE
ENDCHAR
STARTCHAR uni01C5
ENCODING 453
SWIDTH 1257 0
DWIDTH 21 0
BBX 20 13 1 0
BITMAP
FF0000
608000
60C260
6061C0
606000
6067E0
606460
6064C0
6061C0
606180
60C310
608310
FF07F0
ENDCHAR
STARTCHAR uni01C6
ENCODING 454
SWIDTH 1048 0
DWIDTH 18 0
BBX 16 13 1 0
BITMAP
0622
0616
060C
0600
0600
7E3F
4626
C606
C60C
C618
C619
4631
3E7F
ENDCHAR
STARTCHAR uni01C7
ENCODING 455
SWIDTH 1122 0
DWIDTH 19 0
BBX 17 15 1 -2
BITMAP
F80F80
700300
700300
700300
700300
700300
700300
700300
700300
704300
704300
70C300
71F300
8E3600
001C00
ENDCHAR
STARTCHAR uni01C8
ENCODING 456
SWIDTH 992 0
DWIDTH 17 0
BBX 14 19 1 -6
BITMAP
F80C
700C
7000
7000
7000
700C
700C
700C
700C
704C
704C
70CC
71CC
8E0C
000C
000C
000C
0028
0038
ENDCHAR
STARTCHAR uni01C9
ENCODING 457
SWIDTH 626 0
DWIDTH 11 0
BBX 8 19 1 -6
BITMAP
C3
43
40
40
40
47
43
43
43
43
43
43
43
A3
03
03
03
1A
0C
ENDCHAR
STARTCHAR uni01CA
ENCODING 458
SWIDTH 1204 0
DWIDTH 20 0
BBX 17 15 1 -2
BITMAP
F0C780
784180
584180
5C4180
4E4180
4E4180
474180
434180
43C180
41C180
40C180
40C180
405900
A01B00
000400
ENDCHAR
STARTCHAR uni01CB
ENCODING 459
SWIDTH 1074 0
DWIDTH 18 0
BBX 16 19 1 -6
BITMAP
F0C2
7847
5840
5C40
4E40
4646
4742
43C2
43C2
41C2
40C2
40C2
4042
A002
0002
0002
0002
001A
001C
ENDCHAR
STARTCHAR uni01CC
ENCODING 460
SWIDTH 926 0
DWIDTH 16 0
BBX 13 19 1 -6
BITMAP
0018
0018
0000
0000
0000
EE18
7318
6318
6318
6318
6318
6318
6318
8418
0018
0018
0018
00D0
0060
ENDCHAR
STARTCHAR uni01EA
ENCODING 490
SWIDTH 782 0
DWIDTH 13 0
BBX 12 17 1 -4
BITMAP
1F00
2080
60C0
E060
E060
C060
C070
C060
E060
E060
60C0
2080
1B00
0C00
0800
1000
1C00
ENDCHAR
STARTCHAR uni01EB
ENCODING 491
SWIDTH 562 0
DWIDTH 10 0
BBX 9 12 0 -4
BITMAP
1E00
2300
6300
6180
6180
6300
6300
3E00
4000
C000
8000
6000
ENDCHAR
STARTCHAR uni01F1
ENCODING 497
SWIDTH 1428 0
DWIDTH 24 0
BBX 23 13 1 0
BITMAP
FF07FE
60861C
60C418
606438
606070
606070
6060E0
6060C0
6061C0
606382
60C382
608706
FF07FE
ENDCHAR
STARTCHAR uni01F2
ENCODING 498
SWIDTH 1257 0
DWIDTH 21 0
BBX 20 13 1 0
BITMAP
FF0000
608000
60C000
606000
606000
6067E0
606460
6064C0
6061C0
606180
60C310
608310
FF07F0
ENDCHAR
STARTCHAR uni01F3
ENCODING 499
SWIDTH 1048 0
DWIDTH 18 0
BBX 16 13 1 0
BITMAP
0600
0600
0600
0600
0600
7E3F
4626
C606
C60C
C618
C619
4631
3E7F
ENDCHAR
STARTCHAR uni01F4
ENCODING 500
SWIDTH 737 0
DWIDTH 13 0
BBX 10 16 1 0
BITMAP
0700
0C00
0000
1F40
30C0
6040
E040
E000
E000
C000
C000
E1C0
E0C0
60C0
2080
1F00
ENDCHAR
STARTCHAR uni01F5
ENCODING 501
SWIDTH 518 0
DWIDTH 9 0
BBX 7 17 1 -6
BITMAP
1C
30
00
3A
4C
CC
CC
48
F0
80
FC
FE
82
82
82
84
78
ENDCHAR
STARTCHAR Aringacute
ENCODING 506
SWIDTH 686 0
DWIDTH 12 0
BBX 10 20 1 0
BITMAP
0600
0E00
1000
0800
1400
0C00
0000
0800
0C00
0C00
1C00
1E00
2600
2600
2700
4300
7F00
4380
8180
C3C0
ENDCHAR
STARTCHAR aringacute
ENCODING 507
SWIDTH 506 0
DWIDTH 9 0
BBX 7 14 1 0
BITMAP
0C
1C
28
28
30
00
78
CC
4C
0C
7C
CC
CC
F6
ENDCHAR
STARTCHAR AEacute
ENCODING 508
SWIDTH 1047 0
DWIDTH 18 0
BBX 16 16 1 0
BITMAP
00C0
0300
0000
03FF
03C3
05C1
05C1
09C8
09C8
11D8
11E8
21C8
3FC0
41C1
41C1
C3FF
ENDCHAR
STARTCHAR aeacute
ENCODING 509
SWIDTH 755 0
DWIDTH 13 0
BBX 11 11 1 0
BITMAP
0600
1800
0000
7BC0
CC60
4C60
0F80
7C00
CC00
D420
F3C0
ENDCHAR
STARTCHAR Oslashacute
ENCODING 510
SWIDTH 779 0
DWIDTH 13 0
BBX 11 17 1 -1
BITMAP
0100
0700
0000
1F40
2080
60C0
C1E0
C2E0
C460
C460
C860
D0E0
D0E0
60C0
2080
5F00
8000
ENDCHAR
STARTCHAR oslashacute
ENCODING 511
SWIDTH 562 0
DWIDTH 10 0
BBX 8 12 1 -1
BITMAP
06
18
00
3E
46
C6
CB
D3
E6
66
7C
80
ENDCHAR
STARTCHAR uni0200
ENCODING 512
SWIDTH 686 0
DWIDTH 12 0
BBX 10 16 1 0
BITMAP
6C00
3600
0900
0800
0C00
0C00
1C00
1E00
2600
2600
2700
4300
7F00
4380
8180
C3C0
ENDCHAR
STARTCHAR uni0201
ENCODING 513
SWIDTH 506 0
DWIDTH 9 0
BBX 7 13 1 0
BITMAP
D8
D8
24
00
00
78
CC
4C
0C
7C
CC
CC
F6
ENDCHAR
STARTCHAR uni0202
ENCODING 514
SWIDTH 686 0
DWIDTH 12 0
BBX 10 16 1 0
BITMAP
1E00
2200
0000
0800
0C00
0C00
1C00
1E00
2600
2600
2700
4300
7F00
4380
8180
C3C0
ENDCHAR
STARTCHAR uni0203
ENCODING 515
SWIDTH 506 0
DWIDTH 9 0
BBX 7 12 1 0
BITMAP
78
44
00
00
78
CC
4C
0C
7C
CC
CC
F6
ENDCHAR
STARTCHAR uni0204
ENCODING 516
SWIDTH 691 0
DWIDTH 12 0
BBX 10 16 1 0
BITMAP
6C00
3600
0900
FF80
6080
6080
6000
6200
6200
6E00
7600
6200
6040
6040
6040
FFC0
ENDCHAR
STARTCHAR uni0205
ENCODING 517
SWIDTH 505 0
DWIDTH 9 0
BBX 7 13 1 0
BITMAP
D8
D8
24
00
00
38
44
C6
F8
C0
C2
44
38
ENDCHAR
STARTCHAR uni0206
ENCODING 518
SWIDTH 691 0
DWIDTH 12 0
BBX 10 16 1 0
BITMAP
1E00
2200
0000
FF80
6080
6080
6000
6200
6200
6E00
7600
6200
6040
6040
6040
FFC0
ENDCHAR
STARTCHAR uni0207
ENCODING 519
SWIDTH 505 0
DWIDTH 9 0
BBX 7 12 1 0
BITMAP
78
44
00
00
38
44
C6
F8
C0
C2
44
38
ENDCHAR
STARTCHAR uni0208
ENCODING 520
SWIDTH 379 0
DWIDTH 6 0
BBX 6 16 0 0
BITMAP
90
FC
00
78
30
30
30
30
30
30
30
30
30
30
30
78
ENDCHAR
STARTCHAR uni0209
ENCODING 521
SWIDTH 330 0
DWIDTH 6 0
BBX 7 13 -1 0
BITMAP
D8
6C
36
00
00
00
38
18
18
18
18
18
18
ENDCHAR
STARTCHAR uni020A
ENCODING 522
SWIDTH 379 0
DWIDTH 6 0
BBX 5 16 1 0
BITMAP
F0
88
00
F0
60
60
60
60
60
60
60
60
60
60
60
F0
ENDCHAR
STARTCHAR uni020B
ENCODING 523
SWIDTH 330 0
DWIDTH 6 0
BBX 5 12 0 0
BITMAP
78
88
00
00
00
70
30
30
30
30
30
30
ENDCHAR
STARTCHAR uni020C
ENCODING 524
SWIDTH 782 0
DWIDTH 13 0
BBX 12 16 1 0
BITMAP
3600
1B00
0000
1F00
2080
60C0
E060
E060
C060
C070
C060
E060
E060
60C0
2080
1F00
ENDCHAR
STARTCHAR uni020D
ENCODING 525
SWIDTH 562 0
DWIDTH 10 0
BBX 8 13 1 0
BITMAP
D8
6C
36
00
00
3C
46
C6
C3
C3
C6
46
3C
ENDCHAR
STARTCHAR uni020E
ENCODING 526
SWIDTH 782 0
DWIDTH 13 0
BBX 12 16 1 0
BITMAP
0E00
1100
0000
1F00
2080
60C0
E060
E060
C060
C070
C060
E060
E060
60C0
2080
1F00
ENDCHAR
STARTCHAR uni020F
ENCODING 527
SWIDTH 562 0
DWIDTH 10 0
BBX 8 12 1 0
BITMAP
3C
44
00
00
3C
46
C6
C3
C3
C6
46
3C
ENDCHAR
STARTCHAR uni0210
ENCODING 528
SWIDTH 691 0
DWIDTH 12 0
BBX 10 16 1 0
BITMAP
6C00
3600
0900
FF00
6180
61C0
61C0
6180
6300
7E00
6300
6180
6180
6180
6180
F8C0
ENDCHAR
STARTCHAR uni0211
ENCODING 529
SWIDTH 432 0
DWIDTH 7 0
BBX 7 13 0 0
BITMAP
D8
6C
24
12
00
7E
36
30
30
30
30
30
70
ENDCHAR
STARTCHAR uni0212
ENCODING 530
SWIDTH 691 0
DWIDTH 12 0
BBX 10 16 1 0
BITMAP
1E00
2200
0000
FF00
6180
61C0
61C0
6180
6300
7E00
6300
6180
6180
6180
6180
F8C0
ENDCHAR
STARTCHAR uni0213
ENCODING 531
SWIDTH 432 0
DWIDTH 7 0
BBX 6 12 1 0
BITMAP
78
88
00
00
FC
6C
60
60
60
60
60
E0
ENDCHAR
STARTCHAR uni0214
ENCODING 532
SWIDTH 737 0
DWIDTH 13 0
BBX 10 16 1 0
BITMAP
2400
3F00
0000
F0C0
6040
6040
6040
6040
6040
6040
6040
6040
6040
6040
3080
1F00
ENDCHAR
STARTCHAR uni0215
ENCODING 533
SWIDTH 570 0
DWIDTH 10 0
BBX 7 13 1 0
BITMAP
D8
6C
36
00
00
C6
C6
C6
C6
C6
C6
C6
7E
ENDCHAR
STARTCHAR uni0216
ENCODING 534
SWIDTH 737 0
DWIDTH 13 0
BBX 10 16 1 0
BITMAP
0F00
0880
0000
F0C0
6040
6040
6040
6040
6040
6040
6040
6040
6040
6040
3080
1F00
ENDCHAR
STARTCHAR uni0217
ENCODING 535
SWIDTH 570 0
DWIDTH 10 0
BBX 7 13 1 0
BITMAP
3C
64
40
00
00
C6
C6
C6
C6
C6
C6
C6
7E
ENDCHAR
STARTCHAR Scommaaccent
ENCODING 536
SWIDTH 574 0
DWIDTH 10 0
BBX 8 18 1 -5
BITMAP
3E
42
82
80
E0
FC
7E
1F
03
01
81
82
FC
00
18
18
08
10
ENDCHAR
STARTCHAR scommaaccent
ENCODING 537
SWIDTH 438 0
DWIDTH 7 0
BBX 6 13 1 -5
BITMAP
78
88
C0
F0
78
0C
88
F8
00
30
70
10
20
ENDCHAR
STARTCHAR uni021A
ENCODING 538
SWIDTH 705 0
DWIDTH 12 0
BBX 12 18 0 -5
BITMAP
FFF0
C630
8610
8610
0600
0600
0600
0600
0600
0600
0600
0600
0600
0900
0600
0600
0200
0400
ENDCHAR
STARTCHAR uni021B
ENCODING 539
SWIDTH 354 0
DWIDTH 6 0
BBX 5 15 1 -5
BITMAP
40
40
C0
60
40
40
40
40
48
70
00
60
60
20
40
ENDCHAR
STARTCHAR uni0237
ENCODING 567
SWIDTH 330 0
DWIDTH 6 0
BBX 5 14 -1 -6
BITMAP
38
18
18
18
18
18
18
18
18
18
18
10
D0
60
ENDCHAR
STARTCHAR uni0259
ENCODING 601
SWIDTH 508 0
DWIDTH 9 0
BBX 7 8 1 0
BITMAP
78
8C
06
06
06
FE
CC
78
ENDCHAR
STARTCHAR uni02BC
ENCODING 700
SWIDTH 172 0
DWIDTH 3 0
BBX 3 4 0 9
BITMAP
C0
E0
20
40
ENDCHAR
STARTCHAR circumflex
ENCODING 710
SWIDTH 344 0
DWIDTH 6 0
BBX 4 3 1 10
BITMAP
60
E0
90
ENDCHAR
STARTCHAR caron
ENCODING 711
SWIDTH 344 0
DWIDTH 6 0
BBX 5 3 0 10
BITMAP
88
78
30
ENDCHAR
STARTCHAR uni02C9
ENCODING 713
SWIDTH 340 0
DWIDTH 6 0
BBX 6 1 0 11
BITMAP
FC
ENDCHAR
STARTCHAR breve
ENCODING 728
SWIDTH 333 0
DWIDTH 6 0
BBX 5 2 0 10
BITMAP
88
78
ENDCHAR
STARTCHAR dotaccent
ENCODING 729
SWIDTH 152 0
DWIDTH 3 0
BBX 2 2 0 10
BITMAP
C0
C0
ENDCHAR
STARTCHAR ring
ENCODING 730
SWIDTH 224 0
DWIDTH 4 0
BBX 4 4 0 9
BITMAP
60
90
90
60
ENDCHAR
STARTCHAR ogonek
ENCODING 731
SWIDTH 210 0
DWIDTH 4 0
BBX 3 4 0 -4
BITMAP
60
40
80
E0
ENDCHAR
STARTCHAR tilde
ENCODING 732
SWIDTH 372 0
DWIDTH 6 0
BBX 6 2 0 10
BITMAP
74
98
ENDCHAR
STARTCHAR hungarumlaut
ENCODING 733
SWIDTH 426 0
DWIDTH 7 0
BBX 6 3 1 10
BITMAP
6C
6C
90
ENDCHAR
STARTCHAR gravecomb
ENCODING 768
SWIDTH 0 0
DWIDTH 0 0
BBX 4 2 -8 9
BITMAP
C0
70
ENDCHAR
STARTCHAR acutecomb
ENCODING 769
SWIDTH 0 0
DWIDTH 0 0
BBX 4 2 -6 9
BITMAP
70
C0
ENDCHAR
STARTCHAR uni0302
ENCODING 770
SWIDTH 0 0
DWIDTH 0 0
BBX 4 2 -7 9
BITMAP
60
B0
ENDCHAR
STARTCHAR tildecomb
ENCODING 771
SWIDTH 0 0
DWIDTH 0 0
BBX 6 2 -8 10
BITMAP
64
F8
ENDCHAR
STARTCHAR uni0306
ENCODING 774
SWIDTH 0 0
DWIDTH 0 0
BBX 5 2 -8 9
BITMAP
88
78
ENDCHAR
STARTCHAR hookabovecomb
ENCODING 777
SWIDTH 0 0
DWIDTH 0 0
BBX 3 3 -7 9
BITMAP
60
A0
20
ENDCHAR
STARTCHAR uni030F
ENCODING 783
SWIDTH 0 0
DWIDTH 0 0
BBX 6 3 -7 10
BITMAP
D8
D8
24
ENDCHAR
STARTCHAR uni0311
ENCODING 785
SWIDTH 0 0
DWIDTH 0 0
BBX 6 2 -6 10
BITMAP
78
84
ENDCHAR
STARTCHAR uni031B
ENCODING 795
SWIDTH 0 0
DWIDTH 0 0
BBX 2 2 -6 8
BITMAP
40
C0
ENDCHAR
STARTCHAR dotbelowcomb
ENCODING 803
SWIDTH 0 0
DWIDTH 0 0
BBX 2 2 -6 -4
BITMAP
C0
C0
ENDCHAR
STARTCHAR uni0326
ENCODING 806
SWIDTH 0 0
DWIDTH 0 0
BBX 3 4 -3 -5
BITMAP
C0
E0
20
40
ENDCHAR
STARTCHAR uni0335
ENCODING 821
SWIDTH 0 0
DWIDTH 0 0
BBX 6 1 -17 0
BITMAP
FC
ENDCHAR
STARTCHAR uni0394
ENCODING 916
SWIDTH 680 0
DWIDTH 12 0
BBX 10 12 1 0
BITMAP
0C00
0C00
1C00
2E00
2600
2700
4700
4300
8380
8380
81C0
FFC0
ENDCHAR
STARTCHAR uni03A9
ENCODING 937
SWIDTH 762 0
DWIDTH 13 0
BBX 11 13 1 0
BITMAP
0400
3B80
60C0
60C0
E0E0
E0E0
E0E0
E0C0
60C0
6080
3180
F1E0
FBE0
ENDCHAR
STARTCHAR uni03BC
ENCODING 956
SWIDTH 570 0
DWIDTH 10 0
BBX 7 12 1 -4
BITMAP
C6
C6
C6
C6
C6
C6
C6
FE
80
80
C0
C0
ENDCHAR
STARTCHAR pi
ENCODING 960
SWIDTH 602 0
DWIDTH 10 0
BBX 8 8 1 0
BITMAP
7F
E7
26
26
26
46
46
C7
ENDCHAR
STARTCHAR uni1E0C
ENCODING 7692
SWIDTH 777 0
DWIDTH 13 0
BBX 11 17 1 -4
BITMAP
FF00
6080
60C0
6060
6060
6060
6060
6060
6060
6060
60C0
6080
6300
9C00
0000
0600
0600
ENDCHAR
STARTCHAR uni1E0D
ENCODING 7693
SWIDTH 568 0
DWIDTH 10 0
BBX 7 17 1 -4
BITMAP
06
06
06
06
06
3E
46
C6
C6
C6
C6
46
7E
00
00
18
18
ENDCHAR
STARTCHAR uni1E24
ENCODING 7716
SWIDTH 801 0
DWIDTH 14 0
BBX 11 17 1 -4
BITMAP
F1E0
60E0
60E0
60E0
60E0
60E0
7FE0
60E0
60E0
60E0
60E0
60E0
60E0
9100
0000
0600
0600
ENDCHAR
STARTCHAR uni1E25
ENCODING 7717
SWIDTH 596 0
DWIDTH 10 0
BBX 8 17 1 -4
BITMAP
E0
60
60
60
60
6E
73
63
63
63
63
63
63
84
00
18
18
ENDCHAR
STARTCHAR uni1E44
ENCODING 7748
SWIDTH 744 0
DWIDTH 13 0
BBX 10 16 1 0
BITMAP
0C00
0C00
0000
F0C0
7840
5840
5C40
4E40
4E40
4740
43C0
43C0
41C0
40C0
40C0
E040
ENDCHAR
STARTCHAR uni1E45
ENCODING 7749
SWIDTH 596 0
DWIDTH 10 0
BBX 8 13 1 0
BITMAP
18
18
00
00
00
EE
73
63
63
63
63
63
E7
ENDCHAR
STARTCHAR uni1E5A
ENCODING 7770
SWIDTH 691 0
DWIDTH 12 0
BBX 10 17 1 -4
BITMAP
FF00
6180
61C0
61C0
6180
6300
7E00
6300
6180
6180
6180
6180
60C0
9800
0000
0C00
0C00
ENDCHAR
STARTCHAR uni1E5B
ENCODING 7771
SWIDTH 432 0
DWIDTH 7 0
BBX 6 12 1 -4
BITMAP
FC
6C
60
60
60
60
60
60
80
00
30
30
ENDCHAR
STARTCHAR uni1E62
ENCODING 7778
SWIDTH 574 0
DWIDTH 10 0
BBX 8 17 1 -4
BITMAP
3E
42
82
80
E0
FC
7E
1F
03
01
81
82
FC
00
00
18
18
ENDCHAR
STARTCHAR uni1E63
ENCODING 7779
SWIDTH 438 0
DWIDTH 7 0
BBX 6 12 1 -4
BITMAP
78
88
C0
F0
78
0C
88
F8
00
00
30
30
ENDCHAR
STARTCHAR uni1E6C
ENCODING 7788
SWIDTH 705 0
DWIDTH 12 0
BBX 12 17 0 -4
BITMAP
FFF0
C630
8610
8610
0600
0600
0600
0600
0600
0600
0600
0600
0600
0900
0000
0600
0600
ENDCHAR
STARTCHAR uni1E6D
ENCODING 7789
SWIDTH 354 0
DWIDTH 6 0
BBX 5 14 1 -4
BITMAP
40
40
C0
60
40
40
40
40
48
70
00
00
60
60
ENDCHAR
STARTCHAR Wgrave
ENCODING 7808
SWIDTH 907 0
DWIDTH 15 0
BBX 14 16 1 0
BITMAP
0E00
0100
0000
FF8C
C688
6688
6708
7310
3310
33A0
3BA0
1DA0
1CC0
1CC0
08C0
0880
ENDCHAR
STARTCHAR wgrave
ENCODING 7809
SWIDTH 686 0
DWIDTH 12 0
BBX 10 11 1 0
BITMAP
1800
0600
0000
C440
C440
6E80
6E80
7380
3300
3300
2200
ENDCHAR
STARTCHAR Wacute
ENCODING 7810
SWIDTH 907 0
DWIDTH 15 0
BBX 14 16 1 0
BITMAP
0380
0400
0000
FF8C
C688
6688
6708
7310
3310
33A0
3BA0
1DA0
1CC0
1CC0
08C0
0880
ENDCHAR
STARTCHAR wacute
ENCODING 7811
SWIDTH 686 0
DWIDTH 12 0
BBX 10 11 1 0
BITMAP
0600
1800
0000
C440
C440
6E80
6E80
7380
3300
3300
2200
ENDCHAR
STARTCHAR Wdieresis
ENCODING 7812
SWIDTH 907 0
DWIDTH 15 0
BBX 14 16 1 0
BITMAP
0C80
0D80
0000
FF8C
C688
6688
6708
7310
3310
33A0
3BA0
1DA0
1CC0
1CC0
08C0
0880
ENDCHAR
STARTCHAR wdieresis
ENCODING 7813
SWIDTH 686 0
DWIDTH 12 0
BBX 10 13 1 0
BITMAP
1200
3200
0000
0000
0000
C440
C440
6E80
6E80
7380
3300
3300
2200
ENDCHAR
STARTCHAR uni1E92
ENCODING 7826
SWIDTH 651 0
DWIDTH 11 0
BBX 10 17 0 -4
BITMAP
7FC0
41C0
4380
4380
0700
0600
0E00
1C00
1C00
3840
3040
7040
E0C0
1F00
0000
0E00
0400
ENDCHAR
STARTCHAR uni1E93
ENCODING 7827
SWIDTH 480 0
DWIDTH 8 0
BBX 6 12 1 -4
BITMAP
FC
9C
98
30
30
60
E4
CC
30
00
30
30
ENDCHAR
STARTCHAR uni1EA0
ENCODING 7840
SWIDTH 686 0
DWIDTH 12 0
BBX 10 17 1 -4
BITMAP
0800
0C00
0C00
1C00
1E00
2600
2600
2700
4300
7F00
4380
8180
8180
4240
0000
0C00
0C00
ENDCHAR
STARTCHAR uni1EA1
ENCODING 7841
SWIDTH 506 0
DWIDTH 9 0
BBX 7 12 1 -4
BITMAP
78
CC
4C
0C
7C
CC
CC
F6
00
00
30
30
ENDCHAR
STARTCHAR uni1EA2
ENCODING 7842
SWIDTH 686 0
DWIDTH 12 0
BBX 10 17 1 0
BITMAP
0C00
1400
0400
0000
0800
0C00
0C00
1C00
1E00
2600
2600
2700
4300
7F00
4380
8180
C3C0
ENDCHAR
STARTCHAR uni1EA3
ENCODING 7843
SWIDTH 506 0
DWIDTH 9 0
BBX 7 12 1 0
BITMAP
30
28
10
00
78
CC
4C
0C
7C
CC
CC
F6
ENDCHAR
STARTCHAR uni1EA4
ENCODING 7844
SWIDTH 686 0
DWIDTH 12 0
BBX 10 18 1 0
BITMAP
0600
1800
0C00
1200
0000
0800
0C00
0C00
1C00
1E00
2600
2600
2700
4300
7F00
4380
8180
C3C0
ENDCHAR
STARTCHAR uni1EA5
ENCODING 7845
SWIDTH 506 0
DWIDTH 9 0
BBX 7 13 1 0
BITMAP
1C
60
30
48
00
78
CC
4C
0C
7C
CC
CC
F6
ENDCHAR
STARTCHAR uni1EA6
ENCODING 7846
SWIDTH 686 0
DWIDTH 12 0
BBX 10 18 1 0
BITMAP
1800
0400
0C00
1200
0000
0800
0C00
0C00
1C00
1E00
2600
2600
2700
4300
7F00
4380
8180
C3C0
ENDCHAR
STARTCHAR uni1EA7
ENCODING 7847
SWIDTH 506 0
DWIDTH 9 0
BBX 7 13 1 0
BITMAP
70
18
30
48
00
78
CC
4C
0C
7C
CC
CC
F6
ENDCHAR
STARTCHAR uni1EA8
ENCODING 7848
SWIDTH 686 0
DWIDTH 12 0
BBX 10 19 1 0
BITMAP
0300
0500
0100
0C00
1200
0000
0800
0C00
0C00
1C00
1E00
2600
2600
2700
4300
7F00
4380
8180
C3C0
ENDCHAR
STARTCHAR uni1EA9
ENCODING 7849
SWIDTH 506 0
DWIDTH 9 0
BBX 7 14 1 0
BITMAP
0C
0A
04
30
48
00
78
CC
4C
0C
7C
CC
CC
F6
ENDCHAR
STARTCHAR uni1EAA
ENCODING 7850
SWIDTH 686 0
DWIDTH 12 0
BBX 10 19 1 0
BITMAP
1900
2E00
0000
0C00
1200
0000
0800
0C00
0C00
1C00
1E00
2600
2600
2700
4300
7F00
4380
8180
C3C0
ENDCHAR
STARTCHAR uni1EAB
ENCODING 7851
SWIDTH 506 0
DWIDTH 9 0
BBX 7 14 1 0
BITMAP
60
BC
00
30
48
00
78
CC
4C
0C
7C
CC
CC
F6
ENDCHAR
STARTCHAR uni1EAC
ENCODING 7852
SWIDTH 686 0
DWIDTH 12 0
BBX 10 20 1 -4
BITMAP
0C00
1200
0000
0800
0C00
0C00
1C00
1E00
2600
2600
2700
4300
7F00
4380
8180
8180
4240
0000
0C00
0C00
ENDCHAR
STARTCHAR uni1EAD
ENCODING 7853
SWIDTH 506 0
DWIDTH 9 0
BBX 7 15 1 -4
BITMAP
30
68
00
78
CC
4C
0C
7C
CC
CC
F6
00
00
30
30
ENDCHAR
STARTCHAR uni1EAE
ENCODING 7854
SWIDTH 686 0
DWIDTH 12 0
BBX 10 20 1 0
BITMAP
0200
0E00
1000
0000
2200
1E00
0000
0800
0C00
0C00
1C00
1E00
2600
2600
2700
4300
7F00
4380
8180
C3C0
ENDCHAR
STARTCHAR uni1EAF
ENCODING 7855
SWIDTH 506 0
DWIDTH 9 0
BBX 7 14 1 0
BITMAP
1C
60
00
44
78
00
78
CC
4C
0C
7C
CC
CC
F6
ENDCHAR
STARTCHAR uni1EB0
ENCODING 7856
SWIDTH 686 0
DWIDTH 12 0
BBX 10 19 1 0
BITMAP
1800
0600
0000
2200
1E00
0000
0800
0C00
0C00
1C00
1E00
2600
2600
2700
4300
7F00
4380
8180
C3C0
ENDCHAR
STARTCHAR uni1EB1
ENCODING 7857
SWIDTH 506 0
DWIDTH 9 0
BBX 7 14 1 0
BITMAP
70
08
00
44
78
00
78
CC
4C
0C
7C
CC
CC
F6
ENDCHAR
STARTCHAR uni1EB2
ENCODING 7858
SWIDTH 686 0
DWIDTH 12 0
BBX 10 19 1 0
BITMAP
1C00
1400
0000
2200
1E00
0000
0800
0C00
0C00
1C00
1E00
2600
2600
2700
4300
7F00
4380
8180
C3C0
ENDCHAR
STARTCHAR uni1EB3
ENCODING 7859
SWIDTH 506 0
DWIDTH 9 0
BBX 7 14 1 0
BITMAP
30
28
10
44
78
00
78
CC
4C
0C
7C
CC
CC
F6
ENDCHAR
STARTCHAR uni1EB4
ENCODING 7860
SWIDTH 686 0
DWIDTH 12 0
BBX 10 19 1 0
BITMAP
1900
2E00
0000
2200
1E00
0000
0800
0C00
0C00
1C00
1E00
2600
2600
2700
4300
7F00
4380
8180
C3C0
ENDCHAR
STARTCHAR uni1EB5
ENCODING 7861
SWIDTH 506 0
DWIDTH 9 0
BBX 7 14 1 0
BITMAP
60
BC
00
44
78
00
78
CC
4C
0C
7C
CC
CC
F6
ENDCHAR
STARTCHAR uni1EB6
ENCODING 7862
SWIDTH 686 0
DWIDTH 12 0
BBX 10 20 1 -4
BITMAP
2200
1E00
0000
0800
0C00
0C00
1C00
1E00
2600
2600
2700
4300
7F00
4380
8180
8180
4240
0000
0C00
0C00
ENDCHAR
STARTCHAR uni1EB7
ENCODING 7863
SWIDTH 506 0
DWIDTH 9 0
BBX 7 15 1 -4
BITMAP
44
78
00
78
CC
4C
0C
7C
CC
CC
F6
00
00
30
30
ENDCHAR
STARTCHAR uni1EB8
ENCODING 7864
SWIDTH 691 0
DWIDTH 12 0
BBX 10 17 1 -4
BITMAP
FF80
6080
6080
6000
6200
6200
6E00
7600
6200
6040
6040
6040
61C0
9E00
0000
0C00
0C00
ENDCHAR
STARTCHAR uni1EB9
ENCODING 7865
SWIDTH 505 0
DWIDTH 9 0
BBX 7 12 1 -4
BITMAP
38
44
C6
F8
C0
C2
44
38
00
00
30
30
ENDCHAR
STARTCHAR uni1EBA
ENCODING 7866
SWIDTH 691 0
DWIDTH 12 0
BBX 10 17 1 0
BITMAP
0C00
1400
0400
0000
FF80
6080
6080
6000
6200
6200
6E00
7600
6200
6040
6040
6040
FFC0
ENDCHAR
STARTCHAR uni1EBB
ENCODING 7867
SWIDTH 505 0
DWIDTH 9 0
BBX 7 12 1 0
BITMAP
30
28
10
00
38
44
C6
F8
C0
C2
44
38
ENDCHAR
STARTCHAR uni1EBC
ENCODING 7868
SWIDTH 691 0
DWIDTH 12 0
BBX 10 17 1 0
BITMAP
1900
2E00
0000
0000
FF80
6080
6080
6000
6200
6200
6E00
7600
6200
6040
6040
6040
FFC0
ENDCHAR
STARTCHAR uni1EBD
ENCODING 7869
SWIDTH 505 0
DWIDTH 9 0
BBX 7 12 1 0
BITMAP
60
BC
00
00
38
44
C6
F8
C0
C2
44
38
ENDCHAR
STARTCHAR uni1EBE
ENCODING 7870
SWIDTH 691 0
DWIDTH 12 0
BBX 10 19 1 0
BITMAP
0200
0E00
1000
0C00
1200
0000
FF80
6080
6080
6000
6200
6200
6E00
7600
6200
6040
6040
6040
FFC0
ENDCHAR
STARTCHAR uni1EBF
ENCODING 7871
SWIDTH 505 0
DWIDTH 9 0
BBX 7 13 1 0
BITMAP
1C
60
30
68
00
38
44
C6
F8
C0
C2
44
38
ENDCHAR
STARTCHAR uni1EC0
ENCODING 7872
SWIDTH 691 0
DWIDTH 12 0
BBX 10 18 1 0
BITMAP
1800
0600
0C00
1200
0000
FF80
6080
6080
6000
6200
6200
6E00
7600
6200
6040
6040
6040
FFC0
ENDCHAR
STARTCHAR uni1EC1
ENCODING 7873
SWIDTH 505 0
DWIDTH 9 0
BBX 7 13 1 0
BITMAP
60
18
30
68
00
38
44
C6
F8
C0
C2
44
38
ENDCHAR
STARTCHAR uni1EC2
ENCODING 7874
SWIDTH 691 0
DWIDTH 12 0
BBX 10 19 1 0
BITMAP
0300
0500
0100
0C00
1200
0000
FF80
6080
6080
6000
6200
6200
6E00
7600
6200
6040
6040
6040
FFC0
ENDCHAR
STARTCHAR uni1EC3
ENCODING 7875
SWIDTH 505 0
DWIDTH 9 0
BBX 7 14 1 0
BITMAP
0C
0A
02
30
68
00
38
44
C6
F8
C0
C2
44
38
ENDCHAR
STARTCHAR uni1EC4
ENCODING 7876
SWIDTH 691 0
DWIDTH 12 0
BBX 10 19 1 0
BITMAP
1900
2E00
0000
0C00
1200
0000
FF80
6080
6080
6000
6200
6200
6E00
7600
6200
6040
6040
6040
FFC0
ENDCHAR
STARTCHAR uni1EC5
ENCODING 7877
SWIDTH 505 0
DWIDTH 9 0
BBX 7 14 1 0
BITMAP
60
BC
00
30
68
00
38
44
C6
F8
C0
C2
44
38
ENDCHAR
STARTCHAR uni1EC6
ENCODING 7878
SWIDTH 691 0
DWIDTH 12 0
BBX 10 20 1 -4
BITMAP
0C00
1200
0000
FF80
6080
6080
6000
6200
6200
6E00
7600
6200
6040
6040
6040
61C0
9E00
0000
0C00
0C00
ENDCHAR
STARTCHAR uni1EC7
ENCODING 7879
SWIDTH 505 0
DWIDTH 9 0
BBX 7 15 1 -4
BITMAP
30
68
00
38
44
C6
F8
C0
C2
44
38
00
00
30
30
ENDCHAR
STARTCHAR uni1EC8
ENCODING 7880
SWIDTH 379 0
DWIDTH 6 0
BBX 4 17 1 0
BITMAP
70
50
20
00
F0
60
60
60
60
60
60
60
60
60
60
60
F0
ENDCHAR
STARTCHAR uni1EC9
ENCODING 7881
SWIDTH 330 0
DWIDTH 6 0
BBX 3 12 1 0
BITMAP
60
A0
20
00
00
E0
60
60
60
60
60
60
ENDCHAR
STARTCHAR uni1ECA
ENCODING 7882
SWIDTH 379 0
DWIDTH 6 0
BBX 4 17 1 -4
BITMAP
F0
60
60
60
60
60
60
60
60
60
60
60
60
90
00
60
60
ENDCHAR
STARTCHAR uni1ECB
ENCODING 7883
SWIDTH 330 0
DWIDTH 6 0
BBX 3 16 1 -4
BITMAP
60
60
00
00
00
E0
60
60
60
60
60
60
00
00
60
60
ENDCHAR
STARTCHAR uni1ECC
ENCODING 7884
SWIDTH 782 0
DWIDTH 13 0
BBX 12 17 1 -4
BITMAP
1F00
2080
60C0
E060
E060
C060
C070
C060
E060
E060
60C0
2080
1F00
0000
0000
0600
0600
ENDCHAR
STARTCHAR uni1ECD
ENCODING 7885
SWIDTH 562 0
DWIDTH 10 0
BBX 8 12 1 -4
BITMAP
3C
46
C6
C3
C3
C6
46
3C
00
00
18
18
ENDCHAR
STARTCHAR uni1ECE
ENCODING 7886
SWIDTH 782 0
DWIDTH 13 0
BBX 12 17 1 0
BITMAP
0600
0A00
0200
0000
1F00
2080
60C0
E060
E060
C060
C070
C060
E060
E060
60C0
2080
1F00
ENDCHAR
STARTCHAR uni1ECF
ENCODING 7887
SWIDTH 562 0
DWIDTH 10 0
BBX 8 12 1 0
BITMAP
18
28
08
00
3C
46
C6
C3
C3
C6
46
3C
ENDCHAR
STARTCHAR uni1ED0
ENCODING 7888
SWIDTH 782 0
DWIDTH 13 0
BBX 12 18 1 0
BITMAP
0700
0800
0600
0900
0000
1F00
2080
60C0
E060
E060
C060
C070
C060
E060
E060
60C0
2080
1F00
ENDCHAR
STARTCHAR uni1ED1
ENCODING 7889
SWIDTH 562 0
DWIDTH 10 0
BBX 8 14 1 0
BITMAP
04
1C
20
18
24
00
3C
46
C6
C3
C3
C6
46
3C
ENDCHAR
STARTCHAR uni1ED2
ENCODING 7890
SWIDTH 782 0
DWIDTH 13 0
BBX 12 18 1 0
BITMAP
1C00
0200
0600
0900
0000
1F00
2080
60C0
E060
E060
C060
C070
C060
E060
E060
60C0
2080
1F00
ENDCHAR
STARTCHAR uni1ED3
ENCODING 7891
SWIDTH 562 0
DWIDTH 10 0
BBX 8 13 1 0
BITMAP
30
0C
18
24
00
3C
46
C6
C3
C3
C6
46
3C
ENDCHAR
STARTCHAR uni1ED4
ENCODING 7892
SWIDTH 782 0
DWIDTH 13 0
BBX 12 19 1 0
BITMAP
0180
0280
0080
0600
0900
0000
1F00
2080
60C0
E060
E060
C060
C070
C060
E060
E060
60C0
2080
1F00
ENDCHAR
STARTCHAR uni1ED5
ENCODING 7893
SWIDTH 562 0
DWIDTH 10 0
BBX 8 14 1 0
BITMAP
06
0A
02
18
24
00
3C
46
C6
C3
C3
C6
46
3C
ENDCHAR
STARTCHAR uni1ED6
ENCODING 7894
SWIDTH 782 0
DWIDTH 13 0
BBX 12 19 1 0
BITMAP
0C80
1700
0000
0600
0900
0000
1F00
2080
60C0
E060
E060
C060
C070
C060
E060
E060
60C0
2080
1F00
ENDCHAR
STARTCHAR uni1ED7
ENCODING 7895
SWIDTH 562 0
DWIDTH 10 0
BBX 8 14 1 0
BITMAP
32
5C
00
18
24
00
3C
46
C6
C3
C3
C6
46
3C
ENDCHAR
STARTCHAR uni1ED8
ENCODING 7896
SWIDTH 782 0
DWIDTH 13 0
BBX 12 20 1 -4
BITMAP
0600
0B00
0000
1F00
2080
60C0
E060
E060
C060
C070
C060
E060
E060
60C0
2080
1F00
0000
0000
0600
0600
ENDCHAR
STARTCHAR uni1ED9
ENCODING 7897
SWIDTH 562 0
DWIDTH 10 0
BBX 8 15 1 -4
BITMAP
18
24
00
3C
46
C6
C3
C3
C6
46
3C
00
00
18
18
ENDCHAR
STARTCHAR uni1EDA
ENCODING 7898
SWIDTH 782 0
DWIDTH 13 0
BBX 12 16 1 0
BITMAP
0300
0C00
0080
1F00
2080
60C0
E060
E060
C060
C070
C060
E060
E060
60C0
2080
1F00
ENDCHAR
STARTCHAR uni1EDB
ENCODING 7899
SWIDTH 562 0
DWIDTH 10 0
BBX 8 11 1 0
BITMAP
0C
38
02
3C
46
C6
C3
C3
C6
46
3C
ENDCHAR
STARTCHAR uni1EDC
ENCODING 7900
SWIDTH 782 0
DWIDTH 13 0
BBX 12 16 1 0
BITMAP
1C00
0600
0080
1F80
2080
60C0
E060
E060
C060
C070
C060
E060
E060
60C0
2080
1F00
ENDCHAR
STARTCHAR uni1EDD
ENCODING 7901
SWIDTH 562 0
DWIDTH 10 0
BBX 8 11 1 0
BITMAP
70
18
02
3C
46
C6
C3
C3
C6
46
3C
ENDCHAR
STARTCHAR uni1EDE
ENCODING 7902
SWIDTH 782 0
DWIDTH 13 0
BBX 12 17 1 0
BITMAP
0E00
0A00
0000
0080
1F00
2080
60C0
E060
E060
C060
C070
C060
E060
E060
60C0
2080
1F00
ENDCHAR
STARTCHAR uni1EDF
ENCODING 7903
SWIDTH 562 0
DWIDTH 10 0
BBX 8 12 1 0
BITMAP
38
28
08
02
3C
46
C6
C3
C3
C6
46
3C
ENDCHAR
STARTCHAR uni1EE0
ENCODING 7904
SWIDTH 782 0
DWIDTH 13 0
BBX 12 17 1 0
BITMAP
0C80
1700
0000
0080
1F00
2080
60C0
E060
E060
C060
C070
C060
E060
E060
60C0
2080
1F00
ENDCHAR
STARTCHAR uni1EE1
ENCODING 7905
SWIDTH 562 0
DWIDTH 10 0
BBX 8 12 1 0
BITMAP
32
5C
00
02
3C
46
C6
C3
C3
C6
46
3C
ENDCHAR
STARTCHAR uni1EE2
ENCODING 7906
SWIDTH 782 0
DWIDTH 13 0
BBX 12 18 1 -4
BITMAP
0080
1F00
2080
60C0
E060
E060
C060
C070
C060
E060
E060
60C0
2080
1F00
0000
0000
0600
0600
ENDCHAR
STARTCHAR uni1EE3
ENCODING 7907
SWIDTH 562 0
DWIDTH 10 0
BBX 8 13 1 -4
BITMAP
02
3C
46
C6
C3
C3
C6
46
3C
00
00
18
18
ENDCHAR
STARTCHAR uni1EE4
ENCODING 7908
SWIDTH 737 0
DWIDTH 13 0
BBX 10 17 1 -4
BITMAP
F0C0
6040
6040
6040
6040
6040
6040
6040
6040
6040
6040
3080
1F00
0000
0000
0C00
0C00
ENDCHAR
STARTCHAR uni1EE5
ENCODING 7909
SWIDTH 570 0
DWIDTH 10 0
BBX 7 12 1 -4
BITMAP
C6
C6
C6
C6
C6
C6
C6
7E
00
00
18
18
ENDCHAR
STARTCHAR uni1EE6
ENCODING 7910
SWIDTH 737 0
DWIDTH 13 0
BBX 10 17 1 0
BITMAP
0E00
0A00
0400
0000
F0C0
6040
6040
6040
6040
6040
6040
6040
6040
6040
6040
3080
1F00
ENDCHAR
STARTCHAR uni1EE7
ENCODING 7911
SWIDTH 570 0
DWIDTH 10 0
BBX 7 12 1 0
BITMAP
38
28
00
00
C6
C6
C6
C6
C6
C6
C6
7E
ENDCHAR
STARTCHAR uni1EE8
ENCODING 7912
SWIDTH 737 0
DWIDTH 13 0
BBX 12 16 1 0
BITMAP
0700
1800
0030
F0C0
6040
6040
6040
6040
6040
6040
6040
6040
6040
6040
3080
1F00
ENDCHAR
STARTCHAR uni1EE9
ENCODING 7913
SWIDTH 570 0
DWIDTH 10 0
BBX 9 11 1 0
BITMAP
0C00
3000
0080
C700
C600
C600
C600
C600
C600
C600
7E00
ENDCHAR
STARTCHAR uni1EEA
ENCODING 7914
SWIDTH 737 0
DWIDTH 13 0
BBX 12 16 1 0
BITMAP
1800
0600
0030
F0C0
6040
6040
6040
6040
6040
6040
6040
6040
6040
6040
3080
1F00
ENDCHAR
STARTCHAR uni1EEB
ENCODING 7915
SWIDTH 570 0
DWIDTH 10 0
BBX 9 11 1 0
BITMAP
3000
0C00
0080
C700
C600
C600
C600
C600
C600
C600
7E00
ENDCHAR
STARTCHAR uni1EEC
ENCODING 7916
SWIDTH 737 0
DWIDTH 13 0
BBX 12 17 1 0
BITMAP
0700
0500
0200
0030
F0C0
6040
6040
6040
6040
6040
6040
6040
6040
6040
6040
3080
1F00
ENDCHAR
STARTCHAR uni1EED
ENCODING 7917
SWIDTH 570 0
DWIDTH 10 0
BBX 9 12 1 0
BITMAP
3800
2800
0000
0080
C700
C600
C600
C600
C600
C600
C600
7E00
ENDCHAR
STARTCHAR uni1EEE
ENCODING 7918
SWIDTH 737 0
DWIDTH 13 0
BBX 12 17 1 0
BITMAP
0600
0F80
0010
0030
F0C0
6040
6040
6040
6040
6040
6040
6040
6040
6040
6040
3080
1F00
ENDCHAR
STARTCHAR uni1EEF
ENCODING 7919
SWIDTH 570 0
DWIDTH 10 0
BBX 9 12 1 0
BITMAP
3200
5C00
0000
0080
C700
C600
C600
C600
C600
C600
C600
7E00
ENDCHAR
STARTCHAR uni1EF0
ENCODING 7920
SWIDTH 737 0
DWIDTH 13 0
BBX 12 18 1 -4
BITMAP
0030
F0C0
6040
6040
6040
6040
6040
6040
6040
6040
6040
6040
3080
1F00
0000
0000
0C00
0C00
ENDCHAR
STARTCHAR uni1EF1
ENCODING 7921
SWIDTH 570 0
DWIDTH 10 0
BBX 9 13 1 -4
BITMAP
0080
C700
C600
C600
C600
C600
C600
C600
7E00
0000
0000
1800
1800
ENDCHAR
STARTCHAR Ygrave
ENCODING 7922
SWIDTH 657 0
DWIDTH 11 0
BBX 11 16 0 0
BITMAP
1C00
0600
0000
F0E0
7040
3880
1880
1D00
0D00
0E00
0600
0600
0600
0600
0600
0F00
ENDCHAR
STARTCHAR ygrave
ENCODING 7923
SWIDTH 486 0
DWIDTH 8 0
BBX 7 17 0 -6
BITMAP
30
0C
00
62
62
34
34
1C
18
18
08
10
10
10
20
E0
C0
ENDCHAR
STARTCHAR uni1EF4
ENCODING 7924
SWIDTH 657 0
DWIDTH 11 0
BBX 11 17 0 -4
BITMAP
F0E0
7040
3880
1880
1D00
0D00
0E00
0600
0600
0600
0600
0600
0600
0900
0000
0600
0600
ENDCHAR
STARTCHAR uni1EF5
ENCODING 7925
SWIDTH 486 0
DWIDTH 8 0
BBX 7 14 0 -6
BITMAP
62
62
34
34
1C
18
18
08
10
10
14
2E
E0
C0
ENDCHAR
STARTCHAR uni1EF6
ENCODING 7926
SWIDTH 657 0
DWIDTH 11 0
BBX 11 17 0 0
BITMAP
0E00
0A00
0000
0000
F0E0
7040
3880
1880
1D00
0D00
0E00
0600
0600
0600
0600
0600
0F00
ENDCHAR
STARTCHAR uni1EF7
ENCODING 7927
SWIDTH 486 0
DWIDTH 8 0
BBX 7 18 0 -6
BITMAP
18
34
08
00
62
62
34
34
1C
18
18
08
10
10
10
20
E0
C0
ENDCHAR
STARTCHAR uni1EF8
ENCODING 7928
SWIDTH 657 0
DWIDTH 11 0
BBX 11 17 0 0
BITMAP
0C00
1700
0000
0000
F0E0
7040
3880
1880
1D00
0D00
0E00
0600
0600
0600
0600
0600
0F00
ENDCHAR
STARTCHAR uni1EF9
ENCODING 7929
SWIDTH 486 0
DWIDTH 8 0
BBX 7 18 0 -6
BITMAP
32
5E
00
00
62
62
34
34
1C
18
18
08
10
10
10
20
E0
C0
ENDCHAR
STARTCHAR endash
ENCODING 8211
SWIDTH 538 0
DWIDTH 9 0
BBX 9 1 0 3
BITMAP
FF80
ENDCHAR
STARTCHAR emdash
ENCODING 8212
SWIDTH 828 0
DWIDTH 14 0
BBX 14 1 0 3
BITMAP
FFFC
ENDCHAR
STARTCHAR quoteleft
ENCODING 8216
SWIDTH 249 0
DWIDTH 4 0
BBX 4 5 0 8
BITMAP
20
40
80
B0
60
ENDCHAR
STARTCHAR quoteright
ENCODING 8217
SWIDTH 253 0
DWIDTH 4 0
BBX 4 5 0 8
BITMAP
60
F0
10
20
40
ENDCHAR
STARTCHAR quotesinglbase
ENCODING 8218
SWIDTH 253 0
DWIDTH 4 0
BBX 3 5 1 -3
BITMAP
C0
A0
40
40
80
ENDCHAR
STARTCHAR quotedblleft
ENCODING 8220
SWIDTH 496 0
DWIDTH 8 0
BBX 8 5 0 8
BITMAP
22
44
88
BB
67
ENDCHAR
STARTCHAR quotedblright
ENCODING 8221
SWIDTH 500 0
DWIDTH 9 0
BBX 8 5 0 8
BITMAP
66
F7
11
22
42
ENDCHAR
STARTCHAR quotedblbase
ENCODING 8222
SWIDTH 500 0
DWIDTH 9 0
BBX 7 5 1 -3
BITMAP
CC
AE
42
44
80
ENDCHAR
STARTCHAR dagger
ENCODING 8224
SWIDTH 541 0
DWIDTH 9 0
BBX 9 15 0 -2
BITMAP
0800
0800
0800
0800
EB80
5D00
0800
0800
1C00
0800
0800
0800
0800
0800
0800
ENDCHAR
STARTCHAR daggerdbl
ENCODING 8225
SWIDTH 541 0
DWIDTH 9 0
BBX 9 15 0 -2
BITMAP
0800
0800
0800
4900
FF80
0800
0800
1C00
0800
0800
EB80
5D00
0800
0800
0800
ENDCHAR
STARTCHAR bullet
ENCODING 8226
SWIDTH 410 0
DWIDTH 7 0
BBX 3 4 2 4
BITMAP
E0
E0
E0
E0
ENDCHAR
STARTCHAR ellipsis
ENCODING 8230
SWIDTH 738 0
DWIDTH 13 0
BBX 11 2 1 0
BITMAP
CCE0
CCC0
ENDCHAR
STARTCHAR perthousand
ENCODING 8240
SWIDTH 1353 0
DWIDTH 23 0
BBX 21 13 1 0
BITMAP
702000
C84000
CC8000
CC8000
CD0000
C90000
5270F0
228898
048D98
088D98
088D98
108898
1070F0
ENDCHAR
STARTCHAR guilsinglleft
ENCODING 8249
SWIDTH 345 0
DWIDTH 6 0
BBX 4 6 1 1
BITMAP
10
20
40
C0
20
10
ENDCHAR
STARTCHAR guilsinglright
ENCODING 8250
SWIDTH 345 0
DWIDTH 6 0
BBX 3 6 1 1
BITMAP
80
40
20
20
40
80
ENDCHAR
STARTCHAR fraction
ENCODING 8260
SWIDTH 489 0
DWIDTH 8 0
BBX 8 13 0 0
BITMAP
01
01
02
04
04
08
08
10
10
20
40
40
80
ENDCHAR
STARTCHAR uni2070
ENCODING 8304
SWIDTH 407 0
DWIDTH 7 0
BBX 6 6 0 8
BITMAP
7C
44
C4
C4
44
7C
ENDCHAR
STARTCHAR uni2074
ENCODING 8308
SWIDTH 377 0
DWIDTH 6 0
BBX 5 6 0 8
BITMAP
18
38
58
98
78
18
ENDCHAR
STARTCHAR uni2075
ENCODING 8309
SWIDTH 349 0
DWIDTH 6 0
BBX 6 6 0 8
BITMAP
78
80
78
0C
CC
F8
ENDCHAR
STARTCHAR uni2076
ENCODING 8310
SWIDTH 348 0
DWIDTH 6 0
BBX 6 7 0 8
BITMAP
10
20
40
78
CC
4C
78
ENDCHAR
STARTCHAR uni2077
ENCODING 8311
SWIDTH 335 0
DWIDTH 6 0
BBX 5 6 0 8
BITMAP
78
88
10
10
30
30
ENDCHAR
STARTCHAR uni2078
ENCODING 8312
SWIDTH 352 0
DWIDTH 6 0
BBX 6 6 0 8
BITMAP
78
48
78
48
CC
78
ENDCHAR
STARTCHAR uni2079
ENCODING 8313
SWIDTH 348 0
DWIDTH 6 0
BBX 6 6 0 8
BITMAP
78
C8
CC
58
38
30
ENDCHAR
STARTCHAR uni2080
ENCODING 8320
SWIDTH 407 0
DWIDTH 7 0
BBX 7 7 0 -2
BITMAP
38
44
44
C6
44
44
38
ENDCHAR
STARTCHAR uni2081
ENCODING 8321
SWIDTH 270 0
DWIDTH 5 0
BBX 3 7 1 -2
BITMAP
C0
40
40
40
40
40
E0
ENDCHAR
STARTCHAR uni2082
ENCODING 8322
SWIDTH 350 0
DWIDTH 6 0
BBX 5 6 0 -1
BITMAP
78
48
48
10
60
F8
ENDCHAR
STARTCHAR uni2083
ENCODING 8323
SWIDTH 337 0
DWIDTH 6 0
BBX 5 7 0 -2
BITMAP
78
58
18
38
18
D8
F0
ENDCHAR
STARTCHAR uni2084
ENCODING 8324
SWIDTH 377 0
DWIDTH 6 0
BBX 5 7 0 -2
BITMAP
18
38
58
98
98
78
18
ENDCHAR
STARTCHAR uni2085
ENCODING 8325
SWIDTH 349 0
DWIDTH 6 0
BBX 6 7 0 -2
BITMAP
78
80
80
78
0C
CC
F8
ENDCHAR
STARTCHAR uni2086
ENCODING 8326
SWIDTH 348 0
DWIDTH 6 0
BBX 6 7 0 -2
BITMAP
30
60
40
F8
CC
4C
78
ENDCHAR
STARTCHAR uni2087
ENCODING 8327
SWIDTH 335 0
DWIDTH 6 0
BBX 6 7 0 -2
BITMAP
7C
88
90
10
10
30
30
ENDCHAR
STARTCHAR uni2088
ENCODING 8328
SWIDTH 352 0
DWIDTH 6 0
BBX 6 7 0 -2
BITMAP
78
48
48
78
CC
CC
78
ENDCHAR
STARTCHAR uni2089
ENCODING 8329
SWIDTH 348 0
DWIDTH 6 0
BBX 5 7 0 -2
BITMAP
70
C8
C8
48
38
10
20
ENDCHAR
STARTCHAR colonmonetary
ENCODING 8353
SWIDTH 478 0
DWIDTH 8 0
BBX 7 11 0 1
BITMAP
0A
0C
3E
6E
74
F8
78
7A
2A
3C
30
ENDCHAR
STARTCHAR franc
ENCODING 8355
SWIDTH 642 0
DWIDTH 11 0
BBX 11 13 0 0
BITMAP
7FE0
3060
3020
3020
3100
3100
3F00
3100
3100
FC00
3000
3000
7800
ENDCHAR
STARTCHAR lira
ENCODING 8356
SWIDTH 559 0
DWIDTH 10 0
BBX 9 13 0 -1
BITMAP
1F00
1180
3180
3000
7E00
3800
7E00
1800
1800
7080
9880
9F00
6600
ENDCHAR
STARTCHAR uni20A6
ENCODING 8358
SWIDTH 744 0
DWIDTH 13 0
BBX 12 13 0 0
BITMAP
7860
3C20
2C20
FFF0
2720
FFF0
23A0
21E0
21E0
20E0
2060
2060
7020
ENDCHAR
STARTCHAR uni20A9
ENCODING 8361
SWIDTH 907 0
DWIDTH 15 0
BBX 15 13 1 0
BITMAP
FF8C
E688
6688
FFFE
7310
3310
FFFE
33A0
1DA0
1DE0
1CC0
08C0
0880
ENDCHAR
STARTCHAR Euro
ENCODING 8364
SWIDTH 581 0
DWIDTH 10 0
BBX 9 13 0 0
BITMAP
0F80
1880
1080
3000
3000
FF00
3000
FF00
3000
3000
1080
1880
0F80
ENDCHAR
STARTCHAR uni20B9
ENCODING 8377
SWIDTH 570 0
DWIDTH 10 0
BBX 9 13 1 0
BITMAP
FF80
0C00
0C00
FF80
0E00
0C00
F800
1800
0C00
0C00
0C00
0C00
0600
ENDCHAR
STARTCHAR uni20BA
ENCODING 8378
SWIDTH 570 0
DWIDTH 10 0
BBX 8 13 1 0
BITMAP
F8
70
70
7E
70
F6
78
F3
71
71
71
71
FE
ENDCHAR
STARTCHAR uni2113
ENCODING 8467
SWIDTH 465 0
DWIDTH 8 0
BBX 7 13 0 0
BITMAP
1C
34
34
34
34
38
30
30
F0
30
30
32
1C
ENDCHAR
STARTCHAR uni2116
ENCODING 8470
SWIDTH 1082 0
DWIDTH 18 0
BBX 17 13 1 0
BITMAP
F0C700
784D80
584D80
5C4D80
4E4700
4E4000
474000
43C000
43C000
41C000
40C000
40C000
E04000
ENDCHAR
STARTCHAR uni2120
ENCODING 8480
SWIDTH 785 0
DWIDTH 13 0
BBX 11 6 1 7
BITMAP
F620
9660
E7A0
77A0
15A0
F520
ENDCHAR
STARTCHAR trademark
ENCODING 8482
SWIDTH 845 0
DWIDTH 14 0
BBX 13 6 0 7
BITMAP
FD88
B598
31E8
31E8
3168
3148
ENDCHAR
STARTCHAR uni2126
ENCODING 8486
SWIDTH 762 0
DWIDTH 13 0
BBX 11 13 1 0
BITMAP
0400
3B80
60C0
60C0
E0E0
E0E0
E0E0
E0C0
60C0
6080
3180
F1E0
FBE0
ENDCHAR
STARTCHAR estimated
ENCODING 8494
SWIDTH 898 0
DWIDTH 15 0
BBX 14 12 1 0
BITMAP
1FC0
2030
4018
C018
C018
C01C
FFE0
C000
C000
4000
2030
1FC0
ENDCHAR
STARTCHAR uni2153
ENCODING 8531
SWIDTH 913 0
DWIDTH 16 0
BBX 12 13 2 0
BITMAP
C080
4080
4100
4100
4200
4200
45E0
A9B0
0820
1060
1030
2130
21E0
ENDCHAR
STARTCHAR uni2154
ENCODING 8532
SWIDTH 913 0
DWIDTH 16 0
BBX 13 13 1 0
BITMAP
7820
9840
D840
1080
2100
C900
FAF0
02D8
0410
0430
0818
1898
10F0
ENDCHAR
STARTCHAR oneeighth
ENCODING 8539
SWIDTH 913 0
DWIDTH 16 0
BBX 12 13 2 0
BITMAP
C080
4080
4100
4100
4200
4200
44E0
A9B0
09A0
10E0
1130
2130
21E0
ENDCHAR
STARTCHAR threeeighths
ENCODING 8540
SWIDTH 913 0
DWIDTH 16 0
BBX 13 13 1 0
BITMAP
7820
5840
1840
3880
0900
C900
9270
62D8
0458
0470
08C8
10C8
1078
ENDCHAR
STARTCHAR fiveeighths
ENCODING 8541
SWIDTH 913 0
DWIDTH 16 0
BBX 13 13 1 0
BITMAP
7820
8040
8040
7880
0D00
C900
9A78
62D8
0458
0470
08C8
10C8
1078
ENDCHAR
STARTCHAR seveneighths
ENCODING 8542
SWIDTH 913 0
DWIDTH 16 0
BBX 13 13 1 0
BITMAP
7C20
8840
9080
1080
1100
3100
3278
02D8
0458
0870
08C8
10C8
1078
ENDCHAR
STARTCHAR partialdiff
ENCODING 8706
SWIDTH 569 0
DWIDTH 10 0
BBX 8 14 1 0
BITMAP
30
4C
02
02
03
03
3B
67
C3
C7
C6
C6
CC
78
ENDCHAR
STARTCHAR uni2206
ENCODING 8710
SWIDTH 680 0
DWIDTH 12 0
BBX 10 12 1 0
BITMAP
0C00
0C00
1C00
2E00
2600
2700
4700
4300
8380
8380
81C0
FFC0
ENDCHAR
STARTCHAR product
ENCODING 8719
SWIDTH 711 0
DWIDTH 12 0
BBX 10 13 1 -1
BITMAP
FFC0
6180
6180
6180
6180
6180
6180
6180
6180
6180
6180
6180
E1C0
ENDCHAR
STARTCHAR summation
ENCODING 8721
SWIDTH 833 0
DWIDTH 14 0
BBX 9 15 0 -2
BITMAP
7F80
7080
7080
3880
3800
1C00
1C00
0C00
0800
0800
1000
2080
2080
7F80
FF80
ENDCHAR
STARTCHAR minus
ENCODING 8722
SWIDTH 578 0
DWIDTH 10 0
BBX 8 1 1 5
BITMAP
FF
ENDCHAR
STARTCHAR uni2215
ENCODING 8725
SWIDTH 489 0
DWIDTH 8 0
BBX 8 13 0 0
BITMAP
01
01
02
04
04
08
08
10
10
20
40
40
80
ENDCHAR
STARTCHAR uni2219
ENCODING 8729
SWIDTH 166 0
DWIDTH 3 0
BBX 3 2 0 3
BITMAP
E0
C0
ENDCHAR
STARTCHAR radical
ENCODING 8730
SWIDTH 594 0
DWIDTH 10 0
BBX 7 18 2 -3
BITMAP
02
02
02
02
02
04
04
04
C4
64
64
28
38
38
18
18
08
10
ENDCHAR
STARTCHAR infinity
ENCODING 8734
SWIDTH 789 0
DWIDTH 13 0
BBX 12 6 1 2
BITMAP
71C0
8A20
8410
8410
8A20
71C0
ENDCHAR
STARTCHAR integral
ENCODING 8747
SWIDTH 446 0
DWIDTH 8 0
BBX 8 18 0 -3
BITMAP
0E
1B
18
30
30
38
38
38
38
38
18
18
18
18
18
10
90
E0
ENDCHAR
STARTCHAR approxequal
ENCODING 8776
SWIDTH 585 0
DWIDTH 10 0
BBX 8 5 1 4
BITMAP
60
91
8E
01
FE
ENDCHAR
STARTCHAR notequal
ENCODING 8800
SWIDTH 598 0
DWIDTH 10 0
BBX 8 8 1 2
BITMAP
08
08
FF
08
10
FF
10
10
ENDCHAR
STARTCHAR lessequal
ENCODING 8804
SWIDTH 578 0
DWIDTH 10 0
BBX 8 11 1 1
BITMAP
01
06
18
60
80
60
18
06
01
00
FF
ENDCHAR
STARTCHAR greaterequal
ENCODING 8805
SWIDTH 578 0
DWIDTH 10 0
BBX 8 11 1 1
BITMAP
80
60
18
06
03
0C
30
C0
00
00
FF
ENDCHAR
STARTCHAR lozenge
ENCODING 9674
SWIDTH 595 0
DWIDTH 10 0
BBX 8 14 1 -1
BITMAP
18
1C
24
26
42
43
81
81
43
42
66
24
3C
18
ENDCHAR
STARTCHAR .notdef
ENCODING -1
SWIDTH 809 0
DWIDTH 14 0
BBX 10 21 2 -6
BITMAP
FFC0
C1C0
E1C0
E2C0
E2C0
D2C0
D4C0
D4C0
CCC0
C8C0
C8C0
C8C0
D4C0
D4C0
D4C0
E2C0
E2C0
E2C0
E1C0
C0C0
FFC0
ENDCHAR
STARTCHAR uni1ECD.001
ENCODING -1
SWIDTH 562 0
DWIDTH 10 0
BBX 8 12 1 -4
BITMAP
3C
46
C6
C3
C3
C6
46
3C
00
00
18
18
ENDCHAR
STARTCHAR f_f
ENCODING -1
SWIDTH 646 0
DWIDTH 11 0
BBX 11 13 1 0
BITMAP
01C0
3F60
6B00
6300
6300
FF80
6300
6300
6300
6300
6300
6300
E380
ENDCHAR
STARTCHAR f_f_i
ENCODING -1
SWIDTH 897 0
DWIDTH 15 0
BBX 13 13 1 0
BITMAP
00E0
3D30
6F00
6300
6300
FFF0
6310
6310
6310
6310
6310
6310
E338
ENDCHAR
STARTCHAR f_f_l
ENCODING -1
SWIDTH 885 0
DWIDTH 15 0
BBX 13 13 1 0
BITMAP
00F0
3D30
6F10
6310
6310
FF90
6310
6310
6310
6310
6310
6310
E738
ENDCHAR
STARTCHAR f_i
ENCODING -1
SWIDTH 613 0
DWIDTH 10 0
BBX 8 13 1 0
BITMAP
1E
22
62
60
60
FF
63
63
63
63
63
63
E7
ENDCHAR
STARTCHAR f_l
ENCODING -1
SWIDTH 601 0
DWIDTH 10 0
BBX 8 13 1 0
BITMAP
1F
27
63
63
63
F3
63
63
63
63
63
63
E7
ENDCHAR
STARTCHAR zero.denominator
ENCODING -1
SWIDTH 407 0
DWIDTH 7 0
BBX 7 7 0 0
BITMAP
38
44
44
C6
44
44
38
ENDCHAR
STARTCHAR one.denominator
ENCODING -1
SWIDTH 270 0
DWIDTH 5 0
BBX 3 7 1 0
BITMAP
C0
40
40
40
40
40
E0
ENDCHAR
STARTCHAR two.denominator
ENCODING -1
SWIDTH 350 0
DWIDTH 6 0
BBX 5 7 0 0
BITMAP
78
88
48
18
20
48
F8
ENDCHAR
STARTCHAR three.denominator
ENCODING -1
SWIDTH 337 0
DWIDTH 6 0
BBX 5 7 0 0
BITMAP
78
58
18
38
18
D8
F0
ENDCHAR
STARTCHAR four.denominator
ENCODING -1
SWIDTH 377 0
DWIDTH 6 0
BBX 5 7 0 0
BITMAP
18
38
58
98
98
78
18
ENDCHAR
STARTCHAR five.denominator
ENCODING -1
SWIDTH 349 0
DWIDTH 6 0
BBX 6 7 0 0
BITMAP
78
80
80
78
0C
CC
F8
ENDCHAR
STARTCHAR six.denominator
ENCODING -1
SWIDTH 348 0
DWIDTH 6 0
BBX 6 7 0 0
BITMAP
30
60
40
F8
CC
4C
78
ENDCHAR
STARTCHAR seven.denominator
ENCODING -1
SWIDTH 335 0
DWIDTH 6 0
BBX 5 6 0 0
BITMAP
78
88
10
10
30
30
ENDCHAR
STARTCHAR eight.denominator
ENCODING -1
SWIDTH 352 0
DWIDTH 6 0
BBX 6 7 0 0
BITMAP
78
48
48
78
CC
CC
78
ENDCHAR
STARTCHAR nine.denominator
ENCODING -1
SWIDTH 348 0
DWIDTH 6 0
BBX 5 7 0 0
BITMAP
70
C8
C8
48
38
10
20
ENDCHAR
STARTCHAR zero.numerator
ENCODING -1
SWIDTH 407 0
DWIDTH 7 0
BBX 7 7 0 6
BITMAP
38
44
44
C6
44
44
38
ENDCHAR
STARTCHAR one.numerator
ENCODING -1
SWIDTH 270 0
DWIDTH 5 0
BBX 3 7 1 6
BITMAP
C0
40
40
40
40
40
E0
ENDCHAR
STARTCHAR two.numerator
ENCODING -1
SWIDTH 350 0
DWIDTH 6 0
BBX 5 7 0 6
BITMAP
78
88
48
18
20
48
F8
ENDCHAR
STARTCHAR three.numerator
ENCODING -1
SWIDTH 337 0
DWIDTH 6 0
BBX 5 7 0 6
BITMAP
78
58
18
38
18
D8
F0
ENDCHAR
STARTCHAR four.numerator
ENCODING -1
SWIDTH 377 0
DWIDTH 6 0
BBX 5 7 0 6
BITMAP
18
38
58
98
98
78
18
ENDCHAR
STARTCHAR five.numerator
ENCODING -1
SWIDTH 349 0
DWIDTH 6 0
BBX 6 7 0 6
BITMAP
78
80
80
78
0C
CC
F8
ENDCHAR
STARTCHAR six.numerator
ENCODING -1
SWIDTH 348 0
DWIDTH 6 0
BBX 6 7 0 6
BITMAP
10
20
40
F8
CC
4C
78
ENDCHAR
STARTCHAR seven.numerator
ENCODING -1
SWIDTH 335 0
DWIDTH 6 0
BBX 6 7 0 6
BITMAP
7C
88
90
10
10
30
30
ENDCHAR
STARTCHAR eight.numerator
ENCODING -1
SWIDTH 352 0
DWIDTH 6 0
BBX 6 7 0 6
BITMAP
78
48
48
78
CC
CC
78
ENDCHAR
STARTCHAR nine.numerator
ENCODING -1
SWIDTH 348 0
DWIDTH 6 0
BBX 5 7 0 6
BITMAP
70
C8
C8
48
38
10
20
ENDCHAR
STARTCHAR uni030F.cap
ENCODING -1
SWIDTH 0 0
DWIDTH 0 0
BBX 6 2 -7 14
BITMAP
D8
FC
ENDCHAR
STARTCHAR uni0311.cap
ENCODING -1
SWIDTH 0 0
DWIDTH 0 0
BBX 5 2 -5 14
BITMAP
F0
88
ENDCHAR
STARTCHAR caron.alt
ENCODING -1
SWIDTH 172 0
DWIDTH 3 0
BBX 3 4 0 9
BITMAP
C0
E0
20
40
ENDCHAR
STARTCHAR acute.case
ENCODING -1
SWIDTH 288 0
DWIDTH 5 0
BBX 4 2 1 14
BITMAP
30
E0
ENDCHAR
STARTCHAR breve.case
ENCODING -1
SWIDTH 333 0
DWIDTH 6 0
BBX 5 2 0 14
BITMAP
88
78
ENDCHAR
STARTCHAR caron.case
ENCODING -1
SWIDTH 344 0
DWIDTH 6 0
BBX 4 2 1 14
BITMAP
90
60
ENDCHAR
STARTCHAR circumflex.case
ENCODING -1
SWIDTH 344 0
DWIDTH 6 0
BBX 4 2 1 14
BITMAP
60
B0
ENDCHAR
STARTCHAR dieresis.case
ENCODING -1
SWIDTH 320 0
DWIDTH 5 0
BBX 5 2 0 14
BITMAP
C8
D8
ENDCHAR
STARTCHAR dotaccent.case
ENCODING -1
SWIDTH 152 0
DWIDTH 3 0
BBX 2 2 0 14
BITMAP
C0
C0
ENDCHAR
STARTCHAR grave.case
ENCODING -1
SWIDTH 288 0
DWIDTH 5 0
BBX 4 2 0 14
BITMAP
C0
70
ENDCHAR
STARTCHAR hungarumlaut.case
ENCODING -1
SWIDTH 426 0
DWIDTH 7 0
BBX 6 2 1 14
BITMAP
6C
FC
ENDCHAR
STARTCHAR macron.case
ENCODING -1
SWIDTH 340 0
DWIDTH 6 0
BBX 6 1 0 15
BITMAP
FC
ENDCHAR
STARTCHAR ring.case
ENCODING -1
SWIDTH 201 0
DWIDTH 3 0
BBX 3 3 0 13
BITMAP
40
A0
60
ENDCHAR
STARTCHAR tilde.case
ENCODING -1
SWIDTH 372 0
DWIDTH 6 0
BBX 6 3 0 13
BITMAP
64
FC
80
ENDCHAR
STARTCHAR uni03060301
ENCODING -1
SWIDTH 0 0
DWIDTH 0 0
BBX 5 6 -8 9
BITMAP
08
38
40
00
88
78
ENDCHAR
STARTCHAR uni03060300
ENCODING -1
SWIDTH 0 0
DWIDTH 0 0
BBX 5 5 -8 9
BITMAP
60
18
00
88
78
ENDCHAR
STARTCHAR uni03060309
ENCODING -1
SWIDTH 0 0
DWIDTH 0 0
BBX 5 5 -8 9
BITMAP
30
50
10
88
78
ENDCHAR
STARTCHAR uni03060303
ENCODING -1
SWIDTH 0 0
DWIDTH 0 0
BBX 6 5 -8 9
BITMAP
64
B8
00
88
78
ENDCHAR
STARTCHAR uni03020301
ENCODING -1
SWIDTH 0 0
DWIDTH 0 0
BBX 4 5 -7 9
BITMAP
10
70
80
60
90
ENDCHAR
STARTCHAR uni03020300
ENCODING -1
SWIDTH 0 0
DWIDTH 0 0
BBX 5 4 -8 9
BITMAP
E0
18
30
48
ENDCHAR
STARTCHAR uni03020309
ENCODING -1
SWIDTH 0 0
DWIDTH 0 0
BBX 5 5 -7 9
BITMAP
18
28
08
60
90
ENDCHAR
STARTCHAR uni03020303
ENCODING -1
SWIDTH 0 0
DWIDTH 0 0
BBX 6 5 -8 9
BITMAP
64
B8
00
30
48
ENDCHAR
STARTCHAR NULL
ENCODING -1
SWIDTH 0 0
DWIDTH 0 0
BBX 1 1 0 0
BITMAP
00
ENDCHAR
STARTCHAR espaciador
ENCODING -1
SWIDTH 134 0
DWIDTH 2 0
BBX 2 21 0 -6
BITMAP
C0
C0
C0
C0
C0
C0
C0
C0
C0
C0
C0
C0
C0
C0
C0
C0
C0
C0
C0
C0
C0
ENDCHAR
STARTCHAR dotbelow
ENCODING -1
SWIDTH 152 0
DWIDTH 3 0
BBX 2 2 0 -4
BITMAP
C0
C0
ENDCHAR
ENDFONT
